<?xml version="1.0" encoding="UTF-8"?>
<!DOCTYPE svg PUBLIC "-//W3C//DTD SVG 1.1//EN" "http://www.w3.org/Graphics/SVG/1.1/DTD/svg11.dtd">
<svg xmlns="http://www.w3.org/2000/svg" version="1.1" width="150px" height="150px" style="shape-rendering:geometricPrecision; text-rendering:geometricPrecision; image-rendering:optimizeQuality; fill-rule:evenodd; clip-rule:evenodd" xmlns:xlink="http://www.w3.org/1999/xlink">
<g><path style="opacity:1" fill="#fefefe" d="M -0.5,-0.5 C 49.5,-0.5 99.5,-0.5 149.5,-0.5C 149.5,49.5 149.5,99.5 149.5,149.5C 99.5,149.5 49.5,149.5 -0.5,149.5C -0.5,99.5 -0.5,49.5 -0.5,-0.5 Z"/></g>
<g><path style="opacity:1" fill="#b0c292" d="M 90.5,24.5 C 92.0481,24.8212 92.7148,25.8212 92.5,27.5C 89.7524,27.5983 89.0857,26.5983 90.5,24.5 Z"/></g>
<g><path style="opacity:1" fill="#ecd560" d="M 82.5,27.5 C 83.5,27.5 84.5,27.5 85.5,27.5C 85.5,28.8333 85.5,30.1667 85.5,31.5C 84.5,31.5 83.5,31.5 82.5,31.5C 82.5,30.1667 82.5,28.8333 82.5,27.5 Z"/></g>
<g><path style="opacity:1" fill="#2a9fd0" d="M 75.5,47.5 C 75.0133,46.5266 74.5133,45.5266 74,44.5C 72.3005,45.4061 70.4672,45.7394 68.5,45.5C 68.3259,43.139 67.9926,40.8056 67.5,38.5C 66.5,38.5 65.5,38.5 64.5,38.5C 64.56,42.62 66.2266,45.9533 69.5,48.5C 68.1667,49.5 68.1667,50.5 69.5,51.5C 67.5559,51.4258 65.5559,52.0924 63.5,53.5C 63.5106,51.9826 64.1772,50.8159 65.5,50C 57.9498,46.1528 57.6165,41.8194 64.5,37C 65.5,36.3333 66.5,36.3333 67.5,37C 69.3773,39.2513 70.8773,41.7513 72,44.5C 74.7393,40.3548 76.906,36.0214 78.5,31.5C 79.641,33.4213 79.8077,35.4213 79,37.5C 78.2616,41.1098 77.0949,44.4431 75.5,47.5 Z"/></g>
<g><path style="opacity:1" fill="#c85085" d="M 86.5,50.5 C 85.1667,50.5 84.5,51.1667 84.5,52.5C 82.3977,49.0916 81.7311,45.4249 82.5,41.5C 84.0784,44.3319 85.4118,47.3319 86.5,50.5 Z"/></g>
<g><path style="opacity:1" fill="#cf7ca0" d="M 98.5,50.5 C 101.157,51.4793 101.823,53.146 100.5,55.5C 99.8589,54.0065 98.8589,53.0065 97.5,52.5C 97.8333,51.8333 98.1667,51.1667 98.5,50.5 Z"/></g>
<g><path style="opacity:1" fill="#4fadd3" d="M 63.5,53.5 C 63.0882,55.9726 64.0882,57.3059 66.5,57.5C 64.0165,59.9368 62.6832,62.9368 62.5,66.5C 61.1667,66.5 59.8333,66.5 58.5,66.5C 60.3168,62.2403 61.9834,57.907 63.5,53.5 Z"/></g>
<g><path style="opacity:1" fill="#1f9cd6" d="M 75.5,47.5 C 75.389,52.446 76.0557,57.2794 77.5,62C 76.4087,67.4469 75.0754,72.7802 73.5,78C 73.5699,78.7648 73.9033,79.2648 74.5,79.5C 74.5299,80.4972 74.0299,81.1639 73,81.5C 71.9889,80.9444 71.1556,80.2778 70.5,79.5C 70.6329,74.7283 69.2996,74.5616 66.5,79C 66.7284,79.3988 67.0618,79.5654 67.5,79.5C 67.5,80.1667 67.5,80.8333 67.5,81.5C 66.5,81.5 65.5,81.5 64.5,81.5C 64.1667,81.5 63.8333,81.5 63.5,81.5C 66.3322,75.0784 67.9989,68.245 68.5,61C 68.6134,59.3009 67.9468,58.1342 66.5,57.5C 64.0882,57.3059 63.0882,55.9726 63.5,53.5C 65.5559,52.0924 67.5559,51.4258 69.5,51.5C 68.1667,50.5 68.1667,49.5 69.5,48.5C 66.2266,45.9533 64.56,42.62 64.5,38.5C 65.5,38.5 66.5,38.5 67.5,38.5C 67.9926,40.8056 68.3259,43.139 68.5,45.5C 70.4672,45.7394 72.3005,45.4061 74,44.5C 74.5133,45.5266 75.0133,46.5266 75.5,47.5 Z"/></g>
<g><path style="opacity:1" fill="#db267b" d="M 98.5,50.5 C 98.1667,51.1667 97.8333,51.8333 97.5,52.5C 96.3747,54.1288 95.0414,55.6288 93.5,57C 95.4624,61.0549 97.129,65.2215 98.5,69.5C 97.5,69.5 96.5,69.5 95.5,69.5C 95.6757,65.8079 94.0091,63.8079 90.5,63.5C 91.2071,66.7861 91.5405,70.1194 91.5,73.5C 91.5,74.5 91.5,75.5 91.5,76.5C 89.8333,76.5 88.1667,76.5 86.5,76.5C 86.8294,73.7718 86.1628,71.4385 84.5,69.5C 84.8412,63.9885 84.8412,58.3218 84.5,52.5C 84.5,51.1667 85.1667,50.5 86.5,50.5C 89.0204,51.5498 90.3538,50.5498 90.5,47.5C 93.9419,46.8283 96.6086,47.8283 98.5,50.5 Z"/></g>
<g><path style="opacity:1" fill="#67626a" d="M 101.5,66.5 C 103.337,66.6395 103.67,67.3061 102.5,68.5C 101.702,68.0431 101.369,67.3764 101.5,66.5 Z"/></g>
<g><path style="opacity:1" fill="#ce497b" d="M 84.5,69.5 C 86.1628,71.4385 86.8294,73.7718 86.5,76.5C 88.1667,76.5 89.8333,76.5 91.5,76.5C 91.5,75.5 91.5,74.5 91.5,73.5C 92.8681,75.4181 93.8681,77.5848 94.5,80C 97.154,80.9406 99.8206,81.7739 102.5,82.5C 102.5,83.1667 102.167,83.5 101.5,83.5C 100.5,83.5 99.5,83.5 98.5,83.5C 97.469,82.7515 96.3024,82.0848 95,81.5C 93.6439,82.3802 92.1439,82.7135 90.5,82.5C 88.7354,81.5386 86.7354,81.2053 84.5,81.5C 84.6107,80.8826 84.944,80.3826 85.5,80C 82.1832,79.5017 78.8499,79.335 75.5,79.5C 75.1667,79.5 74.8333,79.5 74.5,79.5C 77.9619,78.5184 81.6286,78.185 85.5,78.5C 85.4921,75.4552 85.1587,72.4552 84.5,69.5 Z"/></g>
<g><path style="opacity:1" fill="#e3f6f8" d="M 70.5,79.5 C 69.5,79.5 68.5,79.5 67.5,79.5C 67.0618,79.5654 66.7284,79.3988 66.5,79C 69.2996,74.5616 70.6329,74.7283 70.5,79.5 Z"/></g>
<g><path style="opacity:1" fill="#d29457" d="M 67.5,79.5 C 68.5,79.5 69.5,79.5 70.5,79.5C 70.1788,81.0481 69.1788,81.7148 67.5,81.5C 67.5,80.8333 67.5,80.1667 67.5,79.5 Z"/></g>
<g><path style="opacity:1" fill="#bf9a3d" d="M 75.5,79.5 C 78.8499,79.335 82.1832,79.5017 85.5,80C 84.944,80.3826 84.6107,80.8826 84.5,81.5C 80.9878,82.0545 77.9878,81.3878 75.5,79.5 Z"/></g>
<g><path style="opacity:1" fill="#53a285" d="M 70.5,79.5 C 71.1556,80.2778 71.9889,80.9444 73,81.5C 74.0299,81.1639 74.5299,80.4972 74.5,79.5C 74.8333,79.5 75.1667,79.5 75.5,79.5C 77.9878,81.3878 80.9878,82.0545 84.5,81.5C 86.7354,81.2053 88.7354,81.5386 90.5,82.5C 90.5,83.1667 90.8333,83.5 91.5,83.5C 81.3016,83.1169 70.9682,83.7835 60.5,85.5C 61.5676,84.5655 62.901,84.2322 64.5,84.5C 64.5,83.5 64.5,82.5 64.5,81.5C 65.5,81.5 66.5,81.5 67.5,81.5C 69.1788,81.7148 70.1788,81.0481 70.5,79.5 Z"/></g>
<g><path style="opacity:1" fill="#c49f74" d="M 98.5,83.5 C 96.8333,83.5 95.1667,83.5 93.5,83.5C 92.8333,83.5 92.1667,83.5 91.5,83.5C 90.8333,83.5 90.5,83.1667 90.5,82.5C 92.1439,82.7135 93.6439,82.3802 95,81.5C 96.3024,82.0848 97.469,82.7515 98.5,83.5 Z"/></g>
<g><path style="opacity:1" fill="#d4cc4e" d="M 63.5,81.5 C 63.8333,81.5 64.1667,81.5 64.5,81.5C 64.5,82.5 64.5,83.5 64.5,84.5C 62.901,84.2322 61.5676,84.5655 60.5,85.5C 59.209,85.2627 58.209,85.596 57.5,86.5C 55.1944,86.9926 52.861,87.3259 50.5,87.5C 51.5903,86.1429 52.9236,85.1429 54.5,84.5C 57.145,82.6896 60.145,81.6896 63.5,81.5 Z"/></g>
<g><path style="opacity:1" fill="#b96c8e" d="M 102.5,82.5 C 105.696,83.9287 108.696,85.5954 111.5,87.5C 109.079,87.1218 106.746,86.4552 104.5,85.5C 103.5,84.8333 102.5,84.1667 101.5,83.5C 102.167,83.5 102.5,83.1667 102.5,82.5 Z"/></g>
<g><path style="opacity:1" fill="#f2faf9" d="M 91.5,83.5 C 92.1667,83.5 92.8333,83.5 93.5,83.5C 96.7124,84.9549 100.046,86.2883 103.5,87.5C 105.721,87.5613 106.054,86.8946 104.5,85.5C 106.746,86.4552 109.079,87.1218 111.5,87.5C 113.941,88.084 115.441,89.4173 116,91.5C 114.488,90.7433 113.154,89.7433 112,88.5C 111.517,89.448 111.351,90.448 111.5,91.5C 110.448,91.3505 109.448,91.5172 108.5,92C 108.833,92.3333 109.167,92.6667 109.5,93C 108.027,93.7096 107.36,94.8762 107.5,96.5C 111.702,96.1832 115.702,96.5166 119.5,97.5C 118.5,97.5 117.5,97.5 116.5,97.5C 116.5,100.833 116.5,104.167 116.5,107.5C 115.833,104.833 115.167,102.167 114.5,99.5C 114.179,97.9519 113.179,97.2852 111.5,97.5C 111.674,102.021 111.007,102.355 109.5,98.5C 108.311,97.5713 106.978,97.238 105.5,97.5C 105.5,100.833 105.5,104.167 105.5,107.5C 104.833,107.833 104.167,108.167 103.5,108.5C 103.5,107.5 103.5,106.5 103.5,105.5C 98.8897,105.404 98.5564,104.404 102.5,102.5C 101.5,101.833 100.5,101.167 99.5,100.5C 100.833,99.8333 102.167,99.1667 103.5,98.5C 101.257,97.5258 98.924,97.1924 96.5,97.5C 96.5,100.833 96.5,104.167 96.5,107.5C 95.8333,106.833 95.1667,106.167 94.5,105.5C 94.5,102.833 94.5,100.167 94.5,97.5C 93.5,97.5 92.5,97.5 91.5,97.5C 91.8134,100.247 91.48,102.914 90.5,105.5C 89.5258,103.257 89.1924,100.924 89.5,98.5C 89.5,97.5 89.5,96.5 89.5,95.5C 88.5,95.5 87.5,95.5 86.5,95.5C 86.5,96.5 86.5,97.5 86.5,98.5C 86.5,101.167 86.5,103.833 86.5,106.5C 86.5,107.5 86.5,108.5 86.5,109.5C 87.675,109.281 88.675,109.614 89.5,110.5C 87.784,110.997 86.1173,111.331 84.5,111.5C 83.6143,110.675 83.281,109.675 83.5,108.5C 84.783,105.157 84.6163,101.824 83,98.5C 79.9141,96.78 77.5808,97.4466 76,100.5C 75.5034,102.81 75.3367,105.143 75.5,107.5C 77.1998,107.374 78.6998,106.707 80,105.5C 81.0299,105.836 81.5299,106.503 81.5,107.5C 80.8826,107.389 80.3826,107.056 80,106.5C 78.1119,108.671 75.9452,110.171 73.5,111C 74.0814,110.107 74.4148,109.107 74.5,108C 73.4191,104.551 72.0858,101.384 70.5,98.5C 70.5,98.1667 70.5,97.8333 70.5,97.5C 68.369,96.6862 66.0356,96.1862 63.5,96C 64.1667,95.6667 64.8333,95.3333 65.5,95C 63.6368,93.5822 63.1368,91.7489 64,89.5C 64.3333,90.5 64.6667,91.5 65,92.5C 65.4955,90.5273 65.6621,88.5273 65.5,86.5C 62.8333,86.5 60.1667,86.5 57.5,86.5C 58.209,85.596 59.209,85.2627 60.5,85.5C 70.9682,83.7835 81.3016,83.1169 91.5,83.5 Z"/></g>
<g><path style="opacity:1" fill="#c9d8ae" d="M 93.5,83.5 C 95.1667,83.5 96.8333,83.5 98.5,83.5C 99.5,83.5 100.5,83.5 101.5,83.5C 102.5,84.1667 103.5,84.8333 104.5,85.5C 106.054,86.8946 105.721,87.5613 103.5,87.5C 100.046,86.2883 96.7124,84.9549 93.5,83.5 Z"/></g>
<g><path style="opacity:1" fill="#f4efc5" d="M 54.5,84.5 C 52.9236,85.1429 51.5903,86.1429 50.5,87.5C 50.5,88.5 50.5,89.5 50.5,90.5C 48.0628,90.7563 45.7294,91.4229 43.5,92.5C 42.479,91.9984 42.3123,91.3317 43,90.5C 46.2254,87.3042 50.0588,85.3042 54.5,84.5 Z"/></g>
<g><path style="opacity:1" fill="#efe28f" d="M 89.5,98.5 C 88.5,98.5 87.5,98.5 86.5,98.5C 86.5,97.5 86.5,96.5 86.5,95.5C 87.5,95.5 88.5,95.5 89.5,95.5C 89.5,96.5 89.5,97.5 89.5,98.5 Z"/></g>
<g><path style="opacity:1" fill="#f29bc3" d="M 38.5,97.5 C 36.1417,97.2525 34.1417,97.9192 32.5,99.5C 32.4142,98.5041 32.7476,97.6708 33.5,97C 35.3869,96.2204 37.0536,96.3871 38.5,97.5 Z"/></g>
<g><path style="opacity:1" fill="#cf3d7a" d="M 38.5,97.5 C 39.5,97.8333 40.1667,98.5 40.5,99.5C 39.9473,101.552 38.9473,101.885 37.5,100.5C 36.791,99.596 35.791,99.2627 34.5,99.5C 34.2053,101.735 34.5386,103.735 35.5,105.5C 37.2385,104.566 38.9052,104.566 40.5,105.5C 39.5791,107.756 37.9124,108.756 35.5,108.5C 33.5891,108.426 32.4224,107.426 32,105.5C 31.2109,103.288 31.3775,101.288 32.5,99.5C 34.1417,97.9192 36.1417,97.2525 38.5,97.5 Z"/></g>
<g><path style="opacity:1" fill="#dc79af" d="M 62.5,97.5 C 61.931,101.329 62.5977,104.663 64.5,107.5C 63.0527,108.885 62.0527,108.552 61.5,106.5C 61.5,103.833 61.5,101.167 61.5,98.5C 61.5,97.8333 61.8333,97.5 62.5,97.5 Z"/></g>
<g><path style="opacity:1" fill="#3ba0ca" d="M 103.5,108.5 C 100.941,108.802 98.6074,108.468 96.5,107.5C 96.5,104.167 96.5,100.833 96.5,97.5C 98.924,97.1924 101.257,97.5258 103.5,98.5C 102.167,99.1667 100.833,99.8333 99.5,100.5C 100.5,101.167 101.5,101.833 102.5,102.5C 98.5564,104.404 98.8897,105.404 103.5,105.5C 103.5,106.5 103.5,107.5 103.5,108.5 Z"/></g>
<g><path style="opacity:1" fill="#fae2f4" d="M 40.5,99.5 C 41.1667,99.5 41.8333,99.5 42.5,99.5C 42.1866,102.247 42.52,104.914 43.5,107.5C 44.7143,105.62 46.0476,105.287 47.5,106.5C 44.7209,107.907 41.8876,109.24 39,110.5C 37.5405,110.192 36.3739,109.525 35.5,108.5C 37.9124,108.756 39.5791,107.756 40.5,105.5C 38.9052,104.566 37.2385,104.566 35.5,105.5C 35.0773,103.219 35.744,101.552 37.5,100.5C 38.9473,101.885 39.9473,101.552 40.5,99.5 Z"/></g>
<g><path style="opacity:1" fill="#f0bfdc" d="M 52.5,98.5 C 51.8429,101.841 53.1763,103.841 56.5,104.5C 54.6684,105.057 53.3351,106.057 52.5,107.5C 50.9313,107.815 49.2647,107.815 47.5,107.5C 49.369,105.365 50.0356,102.698 49.5,99.5C 50.2216,99.9175 50.7216,100.584 51,101.5C 51.2321,100.263 51.7321,99.2625 52.5,98.5 Z"/></g>
<g><path style="opacity:1" fill="#cf427d" d="M 59.5,98.5 C 59.6309,99.3764 59.2975,100.043 58.5,100.5C 57.3914,99.4104 56.3914,99.4104 55.5,100.5C 56.3202,102.111 57.6536,102.778 59.5,102.5C 59.5,103.833 59.5,105.167 59.5,106.5C 57.5497,108.753 55.2163,109.086 52.5,107.5C 53.3351,106.057 54.6684,105.057 56.5,104.5C 53.1763,103.841 51.8429,101.841 52.5,98.5C 53.1342,97.0532 54.3009,96.3866 56,96.5C 57.6991,96.3866 58.8658,97.0532 59.5,98.5 Z"/></g>
<g><path style="opacity:1" fill="#d15b97" d="M 70.5,97.5 C 70.5,97.8333 70.5,98.1667 70.5,98.5C 70.5,101.833 70.5,105.167 70.5,108.5C 69.209,108.737 68.209,108.404 67.5,107.5C 68.7647,106.486 69.4313,104.986 69.5,103C 69.3333,101.5 69.1667,100 69,98.5C 68.6174,99.056 68.1174,99.3893 67.5,99.5C 67.8212,97.9519 68.8212,97.2852 70.5,97.5 Z"/></g>
<g><path style="opacity:1" fill="#f0a3ce" d="M 37.5,100.5 C 35.744,101.552 35.0773,103.219 35.5,105.5C 34.5386,103.735 34.2053,101.735 34.5,99.5C 35.791,99.2627 36.791,99.596 37.5,100.5 Z"/></g>
<g><path style="opacity:1" fill="#fcd8f1" d="M 59.5,98.5 C 60.1667,98.5 60.8333,98.5 61.5,98.5C 61.5,101.167 61.5,103.833 61.5,106.5C 60.8333,106.5 60.1667,106.5 59.5,106.5C 59.5,105.167 59.5,103.833 59.5,102.5C 57.6536,102.778 56.3202,102.111 55.5,100.5C 56.3914,99.4104 57.3914,99.4104 58.5,100.5C 59.2975,100.043 59.6309,99.3764 59.5,98.5 Z"/></g>
<g><path style="opacity:1" fill="#46a3c9" d="M 114.5,99.5 C 114.664,102.187 114.497,104.854 114,107.5C 113.282,108.451 112.449,108.617 111.5,108C 109.217,101.909 108.217,102.075 108.5,108.5C 107.209,108.737 106.209,108.404 105.5,107.5C 105.5,104.167 105.5,100.833 105.5,97.5C 106.978,97.238 108.311,97.5713 109.5,98.5C 111.007,102.355 111.674,102.021 111.5,97.5C 113.179,97.2852 114.179,97.9519 114.5,99.5 Z"/></g>
<g><path style="opacity:1" fill="#44a3cf" d="M 121.5,96.5 C 124.602,96.154 127.435,96.8207 130,98.5C 129.187,101.839 129.354,105.172 130.5,108.5C 129.5,108.5 128.5,108.5 127.5,108.5C 127.778,106.654 127.111,105.32 125.5,104.5C 124.614,105.325 124.281,106.325 124.5,107.5C 123.5,107.5 122.5,107.5 121.5,107.5C 121.5,103.833 121.5,100.167 121.5,96.5 Z"/></g>
<g><path style="opacity:1" fill="#a6e8fa" d="M 124.5,99.5 C 125.5,99.5 126.5,99.5 127.5,99.5C 127.5,100.5 127.5,101.5 127.5,102.5C 126.5,102.5 125.5,102.5 124.5,102.5C 124.5,101.5 124.5,100.5 124.5,99.5 Z"/></g>
<g><path style="opacity:1" fill="#d72179" d="M 62.5,97.5 C 64.1765,98.1834 64.8432,99.5168 64.5,101.5C 66.1788,101.715 67.1788,101.048 67.5,99.5C 68.1174,99.3893 68.6174,99.056 69,98.5C 69.1667,100 69.3333,101.5 69.5,103C 69.4313,104.986 68.7647,106.486 67.5,107.5C 67.5,106.167 67.5,104.833 67.5,103.5C 66.5,103.5 65.5,103.5 64.5,103.5C 64.5,104.833 64.5,106.167 64.5,107.5C 62.5977,104.663 61.931,101.329 62.5,97.5 Z"/></g>
<g><path style="opacity:1" fill="#cd2f74" d="M 49.5,99.5 C 50.0356,102.698 49.369,105.365 47.5,107.5C 47.5,107.167 47.5,106.833 47.5,106.5C 46.0476,105.287 44.7143,105.62 43.5,107.5C 42.52,104.914 42.1866,102.247 42.5,99.5C 43.1342,98.0532 44.3009,97.3866 46,97.5C 47.6991,97.3866 48.8658,98.0532 49.5,99.5 Z"/></g>
<g><path style="opacity:1" fill="#f2b9df" d="M 44.5,99.5 C 46.9118,99.6941 47.9118,101.027 47.5,103.5C 46.5,103.5 45.5,103.5 44.5,103.5C 44.5,102.167 44.5,100.833 44.5,99.5 Z"/></g>
<g><path style="opacity:1" fill="#44a5ce" d="M 83.5,108.5 C 82.5084,108.672 81.8417,108.338 81.5,107.5C 81.5299,106.503 81.0299,105.836 80,105.5C 78.6998,106.707 77.1998,107.374 75.5,107.5C 75.3367,105.143 75.5034,102.81 76,100.5C 77.5808,97.4466 79.9141,96.78 83,98.5C 84.6163,101.824 84.783,105.157 83.5,108.5 Z"/></g>
<g><path style="opacity:1" fill="#b7f5fd" d="M 78.5,99.5 C 79.5862,99.62 80.2528,100.287 80.5,101.5C 80.1667,102.167 79.8333,102.833 79.5,103.5C 78.5713,102.311 78.238,100.978 78.5,99.5 Z"/></g>
<g><path style="opacity:1" fill="#349dd0" d="M 119.5,97.5 C 119.5,101.167 119.5,104.833 119.5,108.5C 118.209,108.737 117.209,108.404 116.5,107.5C 116.5,104.167 116.5,100.833 116.5,97.5C 117.5,97.5 118.5,97.5 119.5,97.5 Z"/></g>
<g><path style="opacity:1" fill="#febcdd" d="M 67.5,107.5 C 66.7321,106.737 66.2321,105.737 66,104.5C 65.7679,105.737 65.2679,106.737 64.5,107.5C 64.5,106.167 64.5,104.833 64.5,103.5C 65.5,103.5 66.5,103.5 67.5,103.5C 67.5,104.833 67.5,106.167 67.5,107.5 Z"/></g>
<g><path style="opacity:1" fill="#3ca0cc" d="M 94.5,105.5 C 92.3175,109.04 89.6508,109.373 86.5,106.5C 86.5,103.833 86.5,101.167 86.5,98.5C 87.5,98.5 88.5,98.5 89.5,98.5C 89.1924,100.924 89.5258,103.257 90.5,105.5C 91.48,102.914 91.8134,100.247 91.5,97.5C 92.5,97.5 93.5,97.5 94.5,97.5C 94.5,100.167 94.5,102.833 94.5,105.5 Z"/></g>
</svg>
