<?xml version="1.0" encoding="UTF-8"?>
<!DOCTYPE svg PUBLIC "-//W3C//DTD SVG 1.1//EN" "http://www.w3.org/Graphics/SVG/1.1/DTD/svg11.dtd">
<svg xmlns="http://www.w3.org/2000/svg" version="1.1" width="150px" height="150px" style="shape-rendering:geometricPrecision; text-rendering:geometricPrecision; image-rendering:optimizeQuality; fill-rule:evenodd; clip-rule:evenodd" xmlns:xlink="http://www.w3.org/1999/xlink">
<g><path style="opacity:1" fill="#fdfdfc" d="M -0.5,-0.5 C 49.5,-0.5 99.5,-0.5 149.5,-0.5C 149.5,49.5 149.5,99.5 149.5,149.5C 99.5,149.5 49.5,149.5 -0.5,149.5C -0.5,99.5 -0.5,49.5 -0.5,-0.5 Z"/></g>
<g><path style="opacity:1" fill="#1c1c1c" d="M 13.5,45.5 C 16.1667,45.5 18.8333,45.5 21.5,45.5C 21.5,46.5 21.5,47.5 21.5,48.5C 19.5853,48.2155 17.9187,48.5489 16.5,49.5C 17.7175,50.1614 19.0508,50.8281 20.5,51.5C 19.0508,52.1719 17.7175,52.8386 16.5,53.5C 16.5,53.8333 16.5,54.1667 16.5,54.5C 17.7175,55.1614 19.0508,55.8281 20.5,56.5C 18.2573,57.4742 15.924,57.8076 13.5,57.5C 13.5,53.5 13.5,49.5 13.5,45.5 Z"/></g>
<g><path style="opacity:1" fill="#757575" d="M 69.5,45.5 C 69.5,49.5 69.5,53.5 69.5,57.5C 72.3878,58.0102 74.7211,57.3435 76.5,55.5C 77.404,56.209 77.7373,57.209 77.5,58.5C 74.5,58.5 71.5,58.5 68.5,58.5C 68.1818,53.9677 68.5151,49.6344 69.5,45.5 Z"/></g>
<g><path style="opacity:1" fill="#232323" d="M 69.5,45.5 C 71.8333,45.5 74.1667,45.5 76.5,45.5C 76.5,46.5 76.5,47.5 76.5,48.5C 71.1667,49.1667 71.1667,49.8333 76.5,50.5C 76.5,51.5 76.5,52.5 76.5,53.5C 75.1266,53.3433 73.7932,53.51 72.5,54C 74.0581,54.21 75.3915,54.71 76.5,55.5C 74.7211,57.3435 72.3878,58.0102 69.5,57.5C 69.5,53.5 69.5,49.5 69.5,45.5 Z"/></g>
<g><path style="opacity:1" fill="#242423" d="M 34.5,45.5 C 37.1873,45.3359 39.854,45.5026 42.5,46C 43.8228,46.8159 44.4894,47.9826 44.5,49.5C 43.5554,52.9868 41.2221,54.3201 37.5,53.5C 37.5,54.8333 37.5,56.1667 37.5,57.5C 36.5,57.5 35.5,57.5 34.5,57.5C 34.5,53.5 34.5,49.5 34.5,45.5 Z"/></g>
<g><path style="opacity:1" fill="#d6d6d4" d="M 37.5,48.5 C 38.675,48.281 39.675,48.6143 40.5,49.5C 38.9483,50.7979 37.9483,50.4646 37.5,48.5 Z"/></g>
<g><path style="opacity:1" fill="#757575" d="M 16.5,49.5 C 18.1667,49.5 19.8333,49.5 21.5,49.5C 21.5,50.8333 21.5,52.1667 21.5,53.5C 19.8333,53.5 18.1667,53.5 16.5,53.5C 17.7175,52.8386 19.0508,52.1719 20.5,51.5C 19.0508,50.8281 17.7175,50.1614 16.5,49.5 Z"/></g>
<g><path style="opacity:1" fill="#292928" d="M 63.5,58.5 C 58.42,58.3798 56.0867,55.7131 56.5,50.5C 57.2395,45.8492 59.9062,44.3492 64.5,46C 66.5593,47.1855 66.726,48.3521 65,49.5C 63.5603,48.8524 62.0603,48.5191 60.5,48.5C 60.5,50.5 60.5,52.5 60.5,54.5C 62.5988,53.7691 64.5988,53.7691 66.5,54.5C 65.9649,56.261 64.9649,57.5943 63.5,58.5 Z"/></g>
<g><path style="opacity:1" fill="#f8d625" d="M 115.5,54.5 C 113.236,53.7814 110.903,53.448 108.5,53.5C 108.5,55.1667 108.5,56.8333 108.5,58.5C 108.552,62.1981 108.886,65.8648 109.5,69.5C 108.833,69.5 108.5,69.8333 108.5,70.5C 107.5,71.1667 106.5,71.8333 105.5,72.5C 104.141,71.9935 103.141,70.9935 102.5,69.5C 101.506,64.544 101.173,59.544 101.5,54.5C 99.6203,54.2291 98.287,54.8958 97.5,56.5C 95.0634,56.886 93.0634,58.0527 91.5,60C 90.2506,60.7401 89.2506,60.5735 88.5,59.5C 88.3505,58.448 88.5172,57.448 89,56.5C 91.3353,54.5998 93.502,52.5998 95.5,50.5C 99.7576,48.2464 103.758,45.5798 107.5,42.5C 109.029,42.5288 110.196,43.1955 111,44.5C 112.997,47.6754 114.497,51.0088 115.5,54.5 Z"/></g>
<g><path style="opacity:1" fill="#242424" d="M 32.5,55.5 C 31.8333,55.5 31.5,55.8333 31.5,56.5C 29.5449,58.3258 27.2116,58.8258 24.5,58C 23.269,56.8173 23.269,55.6507 24.5,54.5C 25.891,55.6446 27.2243,55.6446 28.5,54.5C 27.086,53.376 25.586,52.376 24,51.5C 23.3333,49.8333 23.3333,48.1667 24,46.5C 26.3806,45.565 28.8806,45.2317 31.5,45.5C 31.5,46.5 31.5,47.5 31.5,48.5C 29.8008,48.3398 28.1341,48.5065 26.5,49C 30.128,49.79 32.128,51.9567 32.5,55.5 Z"/></g>
<g><path style="opacity:1" fill="#c6c6c4" d="M 34.5,45.5 C 34.5,49.5 34.5,53.5 34.5,57.5C 35.5,57.5 36.5,57.5 37.5,57.5C 37.5,56.1667 37.5,54.8333 37.5,53.5C 41.2221,54.3201 43.5554,52.9868 44.5,49.5C 45.1667,49.5 45.8333,49.5 46.5,49.5C 45.8368,51.8036 45.1702,54.1369 44.5,56.5C 45.8084,57.6256 47.1417,57.6256 48.5,56.5C 47.8166,58.1765 46.4832,58.8432 44.5,58.5C 42.8958,57.713 42.2291,56.3797 42.5,54.5C 41.1667,54.5 39.8333,54.5 38.5,54.5C 38.5,55.8333 38.5,57.1667 38.5,58.5C 35.9242,58.5321 33.5909,57.8654 31.5,56.5C 31.5,55.8333 31.8333,55.5 32.5,55.5C 33.1667,52.1667 33.8333,48.8333 34.5,45.5 Z"/></g>
<g><path style="opacity:1" fill="#2d2d2b" d="M 54.5,53.5 C 54.5394,54.5832 54.8728,55.5832 55.5,56.5C 55,56.8333 54.5,57.1667 54,57.5C 52.2341,56.7665 50.4008,56.4332 48.5,56.5C 47.1417,57.6256 45.8084,57.6256 44.5,56.5C 45.1702,54.1369 45.8368,51.8036 46.5,49.5C 47.1835,45.9579 49.1835,44.9579 52.5,46.5C 53.3249,48.8013 53.9916,51.1346 54.5,53.5 Z"/></g>
<g><path style="opacity:1" fill="#8f7f4a" d="M 115.5,54.5 C 116.167,54.5 116.5,54.8333 116.5,55.5C 114.738,55.6427 113.071,55.3094 111.5,54.5C 110.571,55.6888 110.238,57.0222 110.5,58.5C 109.833,58.5 109.167,58.5 108.5,58.5C 108.5,56.8333 108.5,55.1667 108.5,53.5C 110.903,53.448 113.236,53.7814 115.5,54.5 Z"/></g>
<g><path style="opacity:1" fill="#f7de66" d="M 95.5,50.5 C 93.502,52.5998 91.3353,54.5998 89,56.5C 88.5172,57.448 88.3505,58.448 88.5,59.5C 86.5241,58.5729 86.1908,57.2395 87.5,55.5C 89.8867,53.3107 92.5534,51.6441 95.5,50.5 Z"/></g>
<g><path style="opacity:1" fill="#f7f0b0" d="M 105.5,72.5 C 105.167,73.5 104.5,74.1667 103.5,74.5C 102.928,73.0267 102.095,71.6934 101,70.5C 100.667,65.5 100.333,60.5 100,55.5C 99.3292,56.2524 98.4959,56.5858 97.5,56.5C 98.287,54.8958 99.6203,54.2291 101.5,54.5C 101.173,59.544 101.506,64.544 102.5,69.5C 103.141,70.9935 104.141,71.9935 105.5,72.5 Z"/></g>
<g><path style="opacity:1" fill="#ededeb" d="M 56.5,50.5 C 56.0867,55.7131 58.42,58.3798 63.5,58.5C 63.4226,59.7498 62.756,60.5831 61.5,61C 63.3817,61.1981 65.0484,61.6981 66.5,62.5C 63.5,62.5 60.5,62.5 57.5,62.5C 57.1818,67.0323 57.5151,71.3656 58.5,75.5C 60.8333,75.5 63.1667,75.5 65.5,75.5C 65.5,74.5 65.5,73.5 65.5,72.5C 60.1667,71.8333 60.1667,71.1667 65.5,70.5C 65.5,69.5 65.5,68.5 65.5,67.5C 60.1667,66.8333 60.1667,66.1667 65.5,65.5C 65.8333,65.5 66.1667,65.5 66.5,65.5C 67.1667,65.1667 67.8333,64.8333 68.5,64.5C 68.3266,68.1704 69.9933,70.6704 73.5,72C 71.8034,72.3845 70.1368,72.2178 68.5,71.5C 68.6068,69.6214 68.1068,69.2881 67,70.5C 66.5045,72.4727 66.3379,74.4727 66.5,76.5C 62.1775,76.794 58.0108,76.794 54,76.5C 52.6739,76.7549 51.6739,77.4216 51,78.5C 50.6232,77.0577 49.7899,76.0577 48.5,75.5C 48.0823,68.1395 49.0823,67.8061 51.5,74.5C 52.6888,75.4287 54.0222,75.762 55.5,75.5C 55.5,71.1667 55.5,66.8333 55.5,62.5C 54.1667,62.5 52.8333,62.5 51.5,62.5C 51.6677,67.5324 50.6677,67.6991 48.5,63C 47.552,62.5172 46.552,62.3505 45.5,62.5C 46.4709,61.0379 46.1376,59.7046 44.5,58.5C 46.4832,58.8432 47.8166,58.1765 48.5,56.5C 50.4008,56.4332 52.2341,56.7665 54,57.5C 54.5,57.1667 55,56.8333 55.5,56.5C 54.8728,55.5832 54.5394,54.5832 54.5,53.5C 55.1667,52.5 55.8333,51.5 56.5,50.5 Z"/></g>
<g><path style="opacity:1" fill="#848484" d="M 13.5,45.5 C 13.5,49.5 13.5,53.5 13.5,57.5C 15.924,57.8076 18.2573,57.4742 20.5,56.5C 19.0508,55.8281 17.7175,55.1614 16.5,54.5C 18.1667,54.5 19.8333,54.5 21.5,54.5C 21.5,55.8333 21.5,57.1667 21.5,58.5C 18.5,58.5 15.5,58.5 12.5,58.5C 12.1818,53.9677 12.5151,49.6344 13.5,45.5 Z"/></g>
<g><path style="opacity:1" fill="#e3d46d" d="M 112.5,59.5 C 114.167,59.5 115.833,59.5 117.5,59.5C 117.532,61.6188 116.532,62.9522 114.5,63.5C 112.896,62.713 112.229,61.3797 112.5,59.5 Z"/></g>
<g><path style="opacity:1" fill="#f6f5f4" d="M 110.5,59.5 C 111.167,59.5 111.833,59.5 112.5,59.5C 112.229,61.3797 112.896,62.713 114.5,63.5C 113.136,65.1911 111.803,66.8577 110.5,68.5C 110.5,65.5 110.5,62.5 110.5,59.5 Z"/></g>
<g><path style="opacity:1" fill="#20201e" d="M 15.5,62.5 C 16.5,62.5 17.5,62.5 18.5,62.5C 18.6655,66.5138 18.4988,70.5138 18,74.5C 16.3005,75.4061 14.4672,75.7394 12.5,75.5C 12.5,74.5 12.5,73.5 12.5,72.5C 13.5,72.5 14.5,72.5 15.5,72.5C 15.5,69.1667 15.5,65.8333 15.5,62.5 Z"/></g>
<g><path style="opacity:1" fill="#222220" d="M 21.5,62.5 C 24.1667,62.5 26.8333,62.5 29.5,62.5C 29.5,63.5 29.5,64.5 29.5,65.5C 24.1667,66.1667 24.1667,66.8333 29.5,67.5C 29.5,68.5 29.5,69.5 29.5,70.5C 24.1667,71.1667 24.1667,71.8333 29.5,72.5C 29.5,73.5 29.5,74.5 29.5,75.5C 26.8333,75.5 24.1667,75.5 21.5,75.5C 21.5,71.1667 21.5,66.8333 21.5,62.5 Z"/></g>
<g><path style="opacity:1" fill="#262624" d="M 45.5,62.5 C 46.552,62.3505 47.552,62.5172 48.5,63C 50.6677,67.6991 51.6677,67.5324 51.5,62.5C 52.8333,62.5 54.1667,62.5 55.5,62.5C 55.5,66.8333 55.5,71.1667 55.5,75.5C 54.0222,75.762 52.6888,75.4287 51.5,74.5C 49.0823,67.8061 48.0823,68.1395 48.5,75.5C 47.5,75.5 46.5,75.5 45.5,75.5C 45.5,71.1667 45.5,66.8333 45.5,62.5 Z"/></g>
<g><path style="opacity:1" fill="#fbf6c9" d="M 108.5,58.5 C 109.167,58.5 109.833,58.5 110.5,58.5C 110.5,58.8333 110.5,59.1667 110.5,59.5C 110.5,62.5 110.5,65.5 110.5,68.5C 110.5,69.1667 110.167,69.5 109.5,69.5C 108.886,65.8648 108.552,62.1981 108.5,58.5 Z"/></g>
<g><path style="opacity:1" fill="#71706f" d="M 116.5,55.5 C 121.227,55.779 125.893,56.4456 130.5,57.5C 130.599,60.2372 130.265,62.9039 129.5,65.5C 127.025,68.2509 126.025,71.5842 126.5,75.5C 125.766,76.7079 125.433,78.0413 125.5,79.5C 123.458,82.0038 121.792,81.6704 120.5,78.5C 120.883,74.6807 121.883,71.014 123.5,67.5C 120.102,67.5562 118.102,69.5562 117.5,73.5C 115.155,70.925 112.155,69.925 108.5,70.5C 108.5,69.8333 108.833,69.5 109.5,69.5C 110.167,69.5 110.5,69.1667 110.5,68.5C 111.803,66.8577 113.136,65.1911 114.5,63.5C 116.532,62.9522 117.532,61.6188 117.5,59.5C 115.833,59.5 114.167,59.5 112.5,59.5C 111.833,59.5 111.167,59.5 110.5,59.5C 110.5,59.1667 110.5,58.8333 110.5,58.5C 110.238,57.0222 110.571,55.6888 111.5,54.5C 113.071,55.3094 114.738,55.6427 116.5,55.5 Z"/></g>
<g><path style="opacity:1" fill="#80807e" d="M 66.5,62.5 C 66.5,63.5 66.5,64.5 66.5,65.5C 66.1667,65.5 65.8333,65.5 65.5,65.5C 63.7211,63.6565 61.3878,62.9898 58.5,63.5C 58.5,67.5 58.5,71.5 58.5,75.5C 57.5151,71.3656 57.1818,67.0323 57.5,62.5C 60.5,62.5 63.5,62.5 66.5,62.5 Z"/></g>
<g><path style="opacity:1" fill="#ececec" d="M 120.5,78.5 C 119.833,77.5 119.167,76.5 118.5,75.5C 118.672,74.5084 118.338,73.8417 117.5,73.5C 118.102,69.5562 120.102,67.5562 123.5,67.5C 121.883,71.014 120.883,74.6807 120.5,78.5 Z"/></g>
<g><path style="opacity:1" fill="#2e2e2c" d="M 31.5,62.5 C 32.8333,62.5 34.1667,62.5 35.5,62.5C 35.5,65.8333 35.5,69.1667 35.5,72.5C 36.5,72.5 37.5,72.5 38.5,72.5C 38.5,69.1667 38.5,65.8333 38.5,62.5C 39.8333,62.5 41.1667,62.5 42.5,62.5C 42.979,66.9113 42.3124,71.078 40.5,75C 37.0006,76.1201 34.1672,75.2868 32,72.5C 31.5017,69.1832 31.335,65.8499 31.5,62.5 Z"/></g>
<g><path style="opacity:1" fill="#1d1d1c" d="M 65.5,65.5 C 60.1667,66.1667 60.1667,66.8333 65.5,67.5C 65.5,68.5 65.5,69.5 65.5,70.5C 60.1667,71.1667 60.1667,71.8333 65.5,72.5C 65.5,73.5 65.5,74.5 65.5,75.5C 63.1667,75.5 60.8333,75.5 58.5,75.5C 58.5,71.5 58.5,67.5 58.5,63.5C 61.3878,62.9898 63.7211,63.6565 65.5,65.5 Z"/></g>
<g><path style="opacity:1" fill="#262626" d="M 68.5,71.5 C 70.1368,72.2178 71.8034,72.3845 73.5,72C 69.9933,70.6704 68.3266,68.1704 68.5,64.5C 71.2089,61.9524 73.8755,61.9524 76.5,64.5C 76.1924,65.3081 75.6924,65.9747 75,66.5C 73.8173,65.269 72.6507,65.269 71.5,66.5C 74.1282,67.4656 76.1282,69.1323 77.5,71.5C 76.9525,74.5423 75.1191,75.8757 72,75.5C 68.289,75.9727 67.1223,74.6394 68.5,71.5 Z"/></g>
<g><path style="opacity:1" fill="#1f1e1d" d="M 108.5,70.5 C 112.155,69.925 115.155,70.925 117.5,73.5C 118.338,73.8417 118.672,74.5084 118.5,75.5C 119.426,79.9296 118.093,83.2629 114.5,85.5C 111.535,86.7335 108.535,86.7335 105.5,85.5C 104.702,83.0337 103.369,81.0337 101.5,79.5C 102.968,78.2209 103.635,76.5542 103.5,74.5C 104.5,74.1667 105.167,73.5 105.5,72.5C 106.5,71.8333 107.5,71.1667 108.5,70.5 Z"/></g>
<g><path style="opacity:1" fill="#e5e4e5" d="M 108.5,74.5 C 114.158,73.6794 115.825,75.846 113.5,81C 107.741,82.1387 106.074,79.972 108.5,74.5 Z"/></g>
<g><path style="opacity:1" fill="#919191" d="M 72.5,79.5 C 73.1667,80.5 73.8333,81.5 74.5,82.5C 74.6309,83.3764 74.2975,84.0431 73.5,84.5C 72.5481,82.9547 72.2148,81.288 72.5,79.5 Z"/></g>
<g><path style="opacity:1" fill="#bbbbbb" d="M 50.5,79.5 C 52.5387,81.0502 54.872,82.0502 57.5,82.5C 61.6078,84.3299 61.2745,85.3299 56.5,85.5C 56.5,84.8333 56.1667,84.5 55.5,84.5C 55.1788,82.9519 54.1788,82.2852 52.5,82.5C 52.3379,84.5273 52.5045,86.5273 53,88.5C 53.21,86.9419 53.71,85.6085 54.5,84.5C 54.5,86.1667 54.5,87.8333 54.5,89.5C 53.5,89.5 52.5,89.5 51.5,89.5C 51.7678,87.901 51.4345,86.5676 50.5,85.5C 49.9935,84.1411 48.9935,83.1411 47.5,82.5C 48.9935,81.8589 49.9935,80.8589 50.5,79.5 Z"/></g>
<g><path style="opacity:1" fill="#2b2b2b" d="M 33.5,82.5 C 33.6621,84.5273 33.4955,86.5273 33,88.5C 32.79,86.9419 32.29,85.6085 31.5,84.5C 30.8386,85.7175 30.1719,87.0508 29.5,88.5C 28.5344,86.604 28.2011,84.604 28.5,82.5C 30.1667,82.5 31.8333,82.5 33.5,82.5 Z"/></g>
<g><path style="opacity:1" fill="#3d3d3d" d="M 35.5,87.5 C 35.5,86.5 35.5,85.5 35.5,84.5C 36.2039,82.6558 37.5372,82.1558 39.5,83C 40.3366,84.0113 40.67,85.1779 40.5,86.5C 36.6893,86.5958 36.6893,87.2624 40.5,88.5C 38.4181,89.8943 36.7514,89.561 35.5,87.5 Z"/></g>
<g><path style="opacity:1" fill="#f7cae9" d="M 86.5,74.5 C 87.5629,78.6391 88.2296,82.9725 88.5,87.5C 87.7321,86.7375 87.2321,85.7375 87,84.5C 86.5017,81.1832 86.335,77.8499 86.5,74.5 Z"/></g>
<g><path style="opacity:1" fill="#3c3c3c" d="M 19.5,87.5 C 19.1583,88.3382 18.4916,88.6716 17.5,88.5C 16.3281,87.2947 14.9948,87.2947 13.5,88.5C 13.1667,88 12.8333,87.5 12.5,87C 15.3973,77.0172 17.7306,77.1839 19.5,87.5 Z"/></g>
<g><path style="opacity:1" fill="#292929" d="M 21.5,82.5 C 23.1667,82.5 24.8333,82.5 26.5,82.5C 26.8076,84.924 26.4742,87.2573 25.5,89.5C 24.8302,87.7086 24.1635,86.0419 23.5,84.5C 22.71,85.6085 22.21,86.9419 22,88.5C 21.5045,86.5273 21.3379,84.5273 21.5,82.5 Z"/></g>
<g><path style="opacity:1" fill="#282828" d="M 50.5,79.5 C 49.9935,80.8589 48.9935,81.8589 47.5,82.5C 48.9935,83.1411 49.9935,84.1411 50.5,85.5C 49.5,85.5 48.5,85.5 47.5,85.5C 47.719,86.675 47.3857,87.675 46.5,88.5C 45.5159,85.5719 45.1826,82.5719 45.5,79.5C 47.1667,79.5 48.8333,79.5 50.5,79.5 Z"/></g>
<g><path style="opacity:1" fill="#1b1b1b" d="M 55.5,84.5 C 55.1667,84.5 54.8333,84.5 54.5,84.5C 53.71,85.6085 53.21,86.9419 53,88.5C 52.5045,86.5273 52.3379,84.5273 52.5,82.5C 54.1788,82.2852 55.1788,82.9519 55.5,84.5 Z"/></g>
<g><path style="opacity:1" fill="#6e6e6e" d="M 64.5,82.5 C 64.2053,84.7354 64.5386,86.7354 65.5,88.5C 65.5,88.8333 65.5,89.1667 65.5,89.5C 64.2749,88.8478 63.6083,87.6811 63.5,86C 63.5143,84.6153 63.8476,83.4486 64.5,82.5 Z"/></g>
<g><path style="opacity:1" fill="#a3a3a3" d="M 33.5,82.5 C 34.1667,83.1667 34.8333,83.8333 35.5,84.5C 35.5,85.5 35.5,86.5 35.5,87.5C 34.5326,88.8062 33.1993,89.4729 31.5,89.5C 31.5,87.8333 31.5,86.1667 31.5,84.5C 32.29,85.6085 32.79,86.9419 33,88.5C 33.4955,86.5273 33.6621,84.5273 33.5,82.5 Z"/></g>
<g><path style="opacity:1" fill="#202020" d="M 64.5,82.5 C 66.1667,82.5 67.8333,82.5 69.5,82.5C 69.3872,89.6619 68.3872,89.9952 66.5,83.5C 65.5481,85.0453 65.2148,86.712 65.5,88.5C 64.5386,86.7354 64.2053,84.7354 64.5,82.5 Z"/></g>
<g><path style="opacity:1" fill="#c4c4c4" d="M 71.5,79.5 C 71.3354,82.5184 71.502,85.5184 72,88.5C 72.9772,87.2264 73.8106,87.2264 74.5,88.5C 71.6085,89.4025 68.6085,89.7359 65.5,89.5C 65.5,89.1667 65.5,88.8333 65.5,88.5C 65.2148,86.712 65.5481,85.0453 66.5,83.5C 68.3872,89.9952 69.3872,89.6619 69.5,82.5C 70.1667,81.5 70.8333,80.5 71.5,79.5 Z"/></g>
<g><path style="opacity:1" fill="#242424" d="M 71.5,79.5 C 71.8333,79.5 72.1667,79.5 72.5,79.5C 72.2148,81.288 72.5481,82.9547 73.5,84.5C 74.2975,84.0431 74.6309,83.3764 74.5,82.5C 75.2389,82.369 75.9056,82.5357 76.5,83C 75.1667,84.6667 75.1667,86.3333 76.5,88C 75.9056,88.4643 75.2389,88.631 74.5,88.5C 73.8106,87.2264 72.9772,87.2264 72,88.5C 71.502,85.5184 71.3354,82.5184 71.5,79.5 Z"/></g>
<g><path style="opacity:1" fill="#bdbdbd" d="M 129.5,65.5 C 133.191,73.7331 137.358,81.7331 142,89.5C 142.667,90.5 142.667,91.5 142,92.5C 134.212,96.3115 126.378,99.9782 118.5,103.5C 117.264,101.966 116.764,100.3 117,98.5C 121.147,96.3989 125.314,94.3989 129.5,92.5C 124.343,90.3447 119.343,88.0114 114.5,85.5C 118.093,83.2629 119.426,79.9296 118.5,75.5C 119.167,76.5 119.833,77.5 120.5,78.5C 121.792,81.6704 123.458,82.0038 125.5,79.5C 126.413,83.4256 128.746,84.759 132.5,83.5C 131.391,81.6147 130.557,79.6147 130,77.5C 129.184,76.1772 128.017,75.5106 126.5,75.5C 126.025,71.5842 127.025,68.2509 129.5,65.5 Z"/></g>
<g><path style="opacity:1" fill="#f4f4f3" d="M 126.5,75.5 C 128.017,75.5106 129.184,76.1772 130,77.5C 130.557,79.6147 131.391,81.6147 132.5,83.5C 128.746,84.759 126.413,83.4256 125.5,79.5C 125.433,78.0413 125.766,76.7079 126.5,75.5 Z"/></g>
<g><path style="opacity:1" fill="#212121" d="M 57.5,82.5 C 59.099,82.2322 60.4324,82.5655 61.5,83.5C 61.6602,85.1992 61.4935,86.8659 61,88.5C 59.9076,86.0688 58.7409,86.0688 57.5,88.5C 56.596,87.791 56.2627,86.791 56.5,85.5C 61.2745,85.3299 61.6078,84.3299 57.5,82.5 Z"/></g>
<g><path style="opacity:1" fill="#717171" d="M 61.5,83.5 C 62.4614,85.2646 62.7947,87.2646 62.5,89.5C 60.5853,89.7845 58.9187,89.4511 57.5,88.5C 58.7409,86.0688 59.9076,86.0688 61,88.5C 61.4935,86.8659 61.6602,85.1992 61.5,83.5 Z"/></g>
<g><path style="opacity:1" fill="#9b9b9b" d="M 21.5,82.5 C 21.3379,84.5273 21.5045,86.5273 22,88.5C 22.21,86.9419 22.71,85.6085 23.5,84.5C 23.5,86.1667 23.5,87.8333 23.5,89.5C 21.2646,89.7947 19.2646,89.4614 17.5,88.5C 18.4916,88.6716 19.1583,88.3382 19.5,87.5C 20.1667,85.8333 20.8333,84.1667 21.5,82.5 Z"/></g>
<g><path style="opacity:1" fill="#a7a7a7" d="M 11.5,93.5 C 33.1769,93.167 54.8436,93.5003 76.5,94.5C 65.6667,94.8333 54.8333,95.1667 44,95.5C 32.8121,95.4988 21.9788,94.8322 11.5,93.5 Z"/></g>
<g><path style="opacity:1" fill="#b61765" d="M 101.5,79.5 C 103.369,81.0337 104.702,83.0337 105.5,85.5C 104.167,86.5 102.833,87.5 101.5,88.5C 99.668,89.1405 99.3347,90.1405 100.5,91.5C 101.739,91.0576 102.739,90.3909 103.5,89.5C 107.484,89.5307 111.317,88.864 115,87.5C 116.319,89.2495 116.819,91.2495 116.5,93.5C 107.395,94.7882 98.3949,96.4548 89.5,98.5C 89.4476,94.8019 89.1143,91.1352 88.5,87.5C 88.2296,82.9725 87.5629,78.6391 86.5,74.5C 86.5,73.5 86.5,72.5 86.5,71.5C 88.5,71.5 90.5,71.5 92.5,71.5C 92.7574,75.8917 93.4241,80.225 94.5,84.5C 96.5916,82.3951 98.9249,80.7284 101.5,79.5 Z"/></g>
<g><path style="opacity:1" fill="#f1b6e0" d="M 101.5,88.5 C 101.842,89.3382 102.508,89.6716 103.5,89.5C 102.739,90.3909 101.739,91.0576 100.5,91.5C 99.3347,90.1405 99.668,89.1405 101.5,88.5 Z"/></g>
<g><path style="opacity:1" fill="#c5c5c5" d="M 12.5,100.5 C 13.8734,100.343 15.2068,100.51 16.5,101C 15.7948,102.557 16.4615,103.723 18.5,104.5C 18.8333,104.333 19.1667,104.167 19.5,104C 18.6433,103.311 17.9767,102.478 17.5,101.5C 19.7871,100.785 21.9538,100.451 24,100.5C 24.1218,102.169 23.7885,103.835 23,105.5C 22.9736,102.895 21.807,101.729 19.5,102C 20.3366,103.011 20.67,104.178 20.5,105.5C 17.8333,105.5 15.1667,105.5 12.5,105.5C 12.5,103.833 12.5,102.167 12.5,100.5 Z"/></g>
<g><path style="opacity:1" fill="#c0c0c0" d="M 45.5,99.5 C 46.7079,100.234 48.0413,100.567 49.5,100.5C 49.8333,105.833 50.1667,105.833 50.5,100.5C 51.8333,100.5 53.1667,100.5 54.5,100.5C 54.8333,105.833 55.1667,105.833 55.5,100.5C 58.5184,100.335 61.5184,100.502 64.5,101C 64.3601,102.264 64.3601,103.431 64.5,104.5C 65.1667,103.167 65.8333,101.833 66.5,100.5C 67.5,101.833 68.5,101.833 69.5,100.5C 70.776,105.682 71.4427,105.682 71.5,100.5C 73.5447,100.834 75.2114,101.168 76.5,101.5C 75.8555,102.732 75.6888,104.065 76,105.5C 75.3333,104.167 74.6667,104.167 74,105.5C 74.0773,104.262 73.9106,103.262 73.5,102.5C 72.6143,103.325 72.281,104.325 72.5,105.5C 69.1979,104.846 66.0312,104.846 63,105.5C 61.3419,105.325 60.0086,104.658 59,103.5C 58.1612,104.624 56.9945,105.291 55.5,105.5C 50.6153,104.399 45.782,104.399 41,105.5C 39.6349,105.156 38.4682,104.489 37.5,103.5C 35.1324,105.223 32.4658,105.89 29.5,105.5C 29.5,103.833 29.5,102.167 29.5,100.5C 30.552,100.351 31.552,100.517 32.5,101C 31.1667,101.667 31.1667,102.333 32.5,103C 29.9365,103.763 29.9365,104.263 32.5,104.5C 33.1667,104.333 33.8333,104.167 34.5,104C 33.269,102.817 33.269,101.651 34.5,100.5C 35.6956,100.846 35.6956,101.346 34.5,102C 36.1667,102.667 37.8333,102.667 39.5,102C 38.3044,101.346 38.3044,100.846 39.5,100.5C 40.1924,101.025 40.6924,101.692 41,102.5C 42.3103,101.103 43.8103,100.103 45.5,99.5 Z"/></g>
</svg>
