<?xml version="1.0" encoding="utf-8"?>
<!-- Generator: Adobe Illustrator 16.0.0, SVG Export Plug-In . SVG Version: 6.00 Build 0)  -->
<!DOCTYPE svg PUBLIC "-//W3C//DTD SVG 1.1//EN" "http://www.w3.org/Graphics/SVG/1.1/DTD/svg11.dtd">
<svg version="1.1" id="Calque_1" xmlns="http://www.w3.org/2000/svg" xmlns:xlink="http://www.w3.org/1999/xlink" x="0px" y="0px"
	 width="595.281px" height="51.724px" viewBox="0 395.262 595.281 51.724" enable-background="new 0 395.262 595.281 51.724"
	 xml:space="preserve">
<metadata><?xpacket begin="﻿" id="W5M0MpCehiHzreSzNTczkc9d"?>
<x:xmpmeta xmlns:x="adobe:ns:meta/" x:xmptk="Adobe XMP Core 5.3-c011 66.145661, 2012/02/06-14:56:27        ">
   <rdf:RDF xmlns:rdf="http://www.w3.org/1999/02/22-rdf-syntax-ns#">
      <rdf:Description rdf:about=""
            xmlns:dc="http://purl.org/dc/elements/1.1/">
         <dc:format>image/svg+xml</dc:format>
         <dc:title>
            <rdf:Alt>
               <rdf:li xml:lang="x-default">Web</rdf:li>
            </rdf:Alt>
         </dc:title>
      </rdf:Description>
      <rdf:Description rdf:about=""
            xmlns:xmp="http://ns.adobe.com/xap/1.0/"
            xmlns:xmpGImg="http://ns.adobe.com/xap/1.0/g/img/">
         <xmp:CreatorTool>Adobe Illustrator CS6 (Windows)</xmp:CreatorTool>
         <xmp:CreateDate>2023-07-05T14:48:30+02:00</xmp:CreateDate>
         <xmp:ModifyDate>2023-07-05T14:48:31+02:00</xmp:ModifyDate>
         <xmp:MetadataDate>2023-07-05T14:48:31+02:00</xmp:MetadataDate>
         <xmp:Thumbnails>
            <rdf:Alt>
               <rdf:li rdf:parseType="Resource">
                  <xmpGImg:width>256</xmpGImg:width>
                  <xmpGImg:height>24</xmpGImg:height>
                  <xmpGImg:format>JPEG</xmpGImg:format>
                  <xmpGImg:image>/9j/4AAQSkZJRgABAgEASABIAAD/7QAsUGhvdG9zaG9wIDMuMAA4QklNA+0AAAAAABAASAAAAAEA&#xA;AQBIAAAAAQAB/+4ADkFkb2JlAGTAAAAAAf/bAIQABgQEBAUEBgUFBgkGBQYJCwgGBggLDAoKCwoK&#xA;DBAMDAwMDAwQDA4PEA8ODBMTFBQTExwbGxscHx8fHx8fHx8fHwEHBwcNDA0YEBAYGhURFRofHx8f&#xA;Hx8fHx8fHx8fHx8fHx8fHx8fHx8fHx8fHx8fHx8fHx8fHx8fHx8fHx8fHx8f/8AAEQgAGAEAAwER&#xA;AAIRAQMRAf/EAaIAAAAHAQEBAQEAAAAAAAAAAAQFAwIGAQAHCAkKCwEAAgIDAQEBAQEAAAAAAAAA&#xA;AQACAwQFBgcICQoLEAACAQMDAgQCBgcDBAIGAnMBAgMRBAAFIRIxQVEGE2EicYEUMpGhBxWxQiPB&#xA;UtHhMxZi8CRygvElQzRTkqKyY3PCNUQnk6OzNhdUZHTD0uIIJoMJChgZhJRFRqS0VtNVKBry4/PE&#xA;1OT0ZXWFlaW1xdXl9WZ2hpamtsbW5vY3R1dnd4eXp7fH1+f3OEhYaHiImKi4yNjo+Ck5SVlpeYmZ&#xA;qbnJ2en5KjpKWmp6ipqqusra6voRAAICAQIDBQUEBQYECAMDbQEAAhEDBCESMUEFURNhIgZxgZEy&#xA;obHwFMHR4SNCFVJicvEzJDRDghaSUyWiY7LCB3PSNeJEgxdUkwgJChgZJjZFGidkdFU38qOzwygp&#xA;0+PzhJSktMTU5PRldYWVpbXF1eX1RlZmdoaWprbG1ub2R1dnd4eXp7fH1+f3OEhYaHiImKi4yNjo&#xA;+DlJWWl5iZmpucnZ6fkqOkpaanqKmqq6ytrq+v/aAAwDAQACEQMRAD8A9UkgCp2A6nFXn3lT81H1&#xA;3WZbN7FLWzgiluJbsyk8Yov2iCq+Irm11PZvhQBuySBTptJ2r4szHhqIBN30CU6p+d0xvHi0bTRN&#xA;AhNJZi3J1HVgiU4inicvx9jirnKi4+Xtw8VQjY82S+Q/zHtPM7yWksH1TUYk9T0w3JHQGhZDQHau&#xA;4OYet0Bw7g3FztB2kM/pIqQQeh/mdPqvnA6BHp6rD6s8YuvUJPCEMQ3Hj+1w8cszdnCGHxL3obe9&#xA;qwdqHJn8MR2s733IXzj5zvbq9On6VLcada6fcmLVNUVV+2AwEUQJ+Ku53I6VOwrk9LpBEcUqkZDY&#xA;fpLDWa2UpcMCYiJ9Uv0BJNM856paalDeQ6pea3ZWvqtqVlIiIwhUFfVj4swbj9og0p8qkZOTSRlE&#xA;gxjAmqPn3OJi1s4yEhKU4i+IeXe9Z03UYNR0231C2DGG5jWWJWADcWFQDvSuaLJjMJGJ5h6LFkE4&#xA;iQ5F5pq3m2/n1O+1/RLeZHh02CznaWI1t5Tdszh1IILKhr3HfNxi0sREY5kfUT7/AEujzauRnLJj&#xA;B2gBy5HiasvPnmS3jebUbznZyW94lhcJCD6tygUwDkIkVm3IBUcGwz0WM7RG9xvfkOvX9qIa/LEX&#xA;I+mpUa5np0/YjT5h84icXgvC1tDPpcLWPoR/vRd28bzkvxDL8bkinTK/Aw1VbkT3vuJpt/MZ74r2&#xA;BhtQ34gLVfIXmrzPquuNFqEoaFopGuLQx8TbyK9EFVjXjt2dyT1GR1umxQhcfn3/AG/cy0Gry5Ml&#xA;SO1biuX2feUu0YaI+uOurLev5vXVW9P0efqLDy+A1b90Lfj19vamW5eMQ9HD4XB9v38TTh8M5PXx&#xA;eNx9O77uFRsNa8yaDots63jG0ntLyWO3+rI/1d4rjipH2GblzqeRoPkMlPDjyzO24MevPZhjz5cO&#xA;Mb7GMunKivsfNXnTUDDaQ6kYSGv/APShDDKXSCCOWGp9NUPxMRyVRX3xnpsMLJj/ADdrPUkHqnHq&#xA;886iJV9W9A8gCOiG1nWfMssFgNSvi6s+l6pHci3X/RmkLlgEQfGEpWhyWLFjBPCP58efNhmzZSI8&#xA;cv5krrl+uk1sPMHnO/aBLa/LwxC+lS5Fslb2G1aMwkLxHAy8ivw9vfKZ4MMbsb+nr9JN38nIx6jP&#xA;Oqlt6t6+oCq+aO/LrzJ5j1bUJ49RnFxbi3WVx6fFoZ+QBjqkaKNifhZiwplWv0+OERwijfzHzbez&#xA;tTlySIkbFfI93L9rF/Kc0FhA13BFZPrMEd69tF9XufrpkAl4AyV9E/D2p9nbrmbqQZGjxcB4eo4e&#xA;nxcDSSEBxAR4xxVtLi69eX7E3TzdrZsInGtO9jLPEl5rH1EL9W5QszxgceLfvAFrx+HvmOdLDi+n&#xA;1VtHi57/AI97kjWZOEev02Llw8tv1/JRm80eeZbQ3C3bWpttLN6Y/q0Z9d1u5IlYh15JziCmg+jJ&#xA;DTYAaq7nXPl6QfvYy1WoIu6qHFyG/qI+0Iufzf5m/TE0cc5E4upYRpHoCi2axFlu/VK1PxeJoemQ&#xA;Glx8A22r6r639NNktZl4yAd+Ijhr+GvqtAjzH56itPrbaq8vp2dlfGE2sIDNcziJ4iVUGgU1NN/l&#xA;lngYCa4eshzPQXbT+Z1AjxcX8MZfSOpqlOfzLremQXEcV5+ioPW1KaGZbZZPXuI5qRwEcSF5Dflk&#xA;o6eEyLHEaj15CuaJanJjBAPALmeXM3sEwi87a+tzbWctyzXlxeaY0cPop8dpPChnIYJxo0jUrWoP&#xA;SmVHR46JA2EZ9eoOzcNdksRJ9RlDp/CRv070T5B80+Z9V1potQlEkLQu9xbGPg1vIr0UVWNeO23F&#xA;2J75DW6bFCFx538/t+5n2fqsuTJUjtXKuX2fexaw0HWbW017zLbWmnq1ldalLb3bxStqCyoX9Nkq&#xA;TCQHp1Q7VycskSYwJO4j7v1uYIkXLbr71bXfOnnjRLiwhk1f61cmC2u7iI2sMSSevJ8SLQO7qibE&#xA;rwp1JrtkcenxTBPDQ3HP8fpTLJONbolPNv5gWscN/wDWm1AX36XjisGt41ERsUd4HBjVWcnh079O&#xA;uR8DEdqquHe+/mnxJjfnz+xDXfn/AMxR6OjWevPetPKoS/NjHAiuLcySQiVlaPaQAU9It+zko6aH&#xA;FvGvK/P8dUHLKtj9iDTzl5qWz1PWIpEtb25GkLdTiJI+SmCf1R6rxyIjFkG8g4r2p0yZ08LEeYHF&#xA;94Y+JKifcq3H5iefZDp3ozNbM1tDJEJ7ZV+uyGVlk/dokzEFRSkRH83yA0uLf39/L8eaTmnt+LZl&#xA;H+aOh6xpOsfUY7iCazsZZw1wsaKTTioHB3NSzDtlJ7OnjnHio3IDZxh2rjyQnw2DGJO/9rzDytbT&#xA;/wCGfNV9CPjitYICf8iedTJ/wkZzc6mQ8THE95PyDodJE+FlkP5oHzP7Ga/kaNNSx1WdmRb1XX1G&#xA;YgFYAtQanovKtflmu7Y4jKI6fpdr2FwiMj/F+hMvL1/+WA1e6vtBiYapBDPcyOPrATgATJs7enTf&#xA;w+WVZ4angEZn0kgdP7W7T5NJxmWMesAnr/YxP8lLZrjzXdXb7+haua/5cjqP1cszu15ViA7y6/sS&#xA;N5jLuCaeaPL90/mzVNHif0hrgjvrAk8Q8kYKzRg1A5mpajbGlNq1yjTZx4UZn+DY/ob9Vpyc0oD/&#xA;ACnqH6UjuvKWteXbWZrkBLzVGazsbRGDPI09YyAEdhxETmpPRuIzJjqoZSK5R3J937XFnpMmEG/q&#xA;nsB79vu/Q9r0bTxpukWWng8vqkEcPIdyihSfppnO5Z8czLvL1GHHwQEe4Ug4fNFg1xbwTK0DXTTJ&#xA;C7fYLQzGLiW7FuNRmBHWRsA7Xf2GnMOA0SOn6l0vmAcvRt7Z57xppYY4AVWogpzkZjsqCo+/CdT0&#xA;AuVkV7uvuQMPUnb9atDqkzXdraz2rW8twkzkMytx9EoNuPIEN6mx2+WTjmPEIkUTf2V+ticYokG6&#xA;pLpvN8cRhLWx9NzIJW9QBlEdx9XBVSPjJO9P15jy1wFbd/X+lw/FtGnvr+KtMrjWrSDVbfTX5etc&#xA;AkOB8CnfgGPYvwbj8syJaiMZiHU/j7WoYiYmXcpRarfvq76e1iFWNRK0/rA/u3ZlVuPHqSh2rkRm&#xA;kcnBw/b0/AScY4eK0LZ+Z5bmwa9+qosXprJGonVnPJgoDKFqvXK8erMo8VbV3s5YKNX9iK1TWmsW&#xA;mVYPVaNIGSr8QzTzGEAnieIB3rvlmbUcF7Xy+00wx4uKt+/7BaK0y/W/skulTgGLqVqGoY3KNRl2&#xA;Iqux8Msw5OOPF+O5jOHCaS608zCa3Saazkg9eBrm1PJXWVUXmVBG4enYjKIauxZjVix5/tbJYKNA&#xA;9aRWjarNqEZkeGOJOKMhSZZiQ4J3CgccswZjkF1XxtjkxiP9jU+siLTLy+MJItHkThypy9J+Fa02&#xA;rjLPUJSr6b+xRiuQHetXWymnXF7dQqiw7LHDKs5cmgVQVA+JmIAGAaioGUhy7ja+F6gB+pufXEGm&#xA;W19bRGf620aQxFgh5SGlGJrSh2OMtR6BKIvir7VGL1EHoh5/MwjgQi1K3RuBay200ix8HMbSgl/j&#xA;UqVXY98hLV0OXquqO3S2QwWee1Wpalrsfopa3dorwXcLfWgkwNEkcQ8UI48yefYjCdaYGJrz5+df&#xA;FB0wmCOnL7EVZ6hHDqI0W1tqW9mqRc/UHJAIgy/A3xFKUXlXrlh1JllMa95+3l3MI4RHGK+H3K+o&#xA;ao9vPFa21u13eSqXESsECopALu7bAVNB445cxiREDikUwx2LJoIW81+7txQaexmWB7maJ5EUokbc&#xA;TuvMHxFDleTUyj/DvV8+5nHCD160u/Td4YbZUsS1/dq0kVsJV4iJeNXeSnwj4wPsk1w/mJUPT6pd&#xA;L6d9o8IWd9gs/wARemJEvrY28kEscV3xfkkcc4PpzB6LVCw4nYU+jB+ar6hRBF/Hkfcnwb5G7/FJ&#xA;dpV9ZaPp1tbaXZcbW6luHtjNPwDqrAmXk4NOZNVHhhy6+UyJV9V1vWwRDTCNi+X6U5g160fUE0+X&#xA;91dvDHMoqGRudfgRx9ojj9PbJR1MTPgO0qtBxHh4hyQy+ZhLNbRQWpdpwzsrSIjBVlMR4BvtkUqR&#xA;4ZWNXZAA5+fnXxZeBQNlgeqfkaJL55NO1JYbSRiRDLGWZATXiGB+IDtWmdRj7YqPqju8vl7CuVxl&#xA;QZp5X8jaVoWhz6VU3a3nL67LIOPqcl404gmi8e1c12p1kssxLlXJ2el0MMWMw58XPzYTffkW/wBa&#xA;Y6fqoS1cmiTRkuqntyUgN9wzZQ7Z29Ud3V5Owt/TLbzZJof5Y2OkaHqNjBdM9/qcD201+6A8UcEE&#xA;JHy2G/8AN9OYebtGWScZEemJunOwdlxx45RB9UhV/sRHkPyAnlRr1/rv117sRgH0vS4CPl/lyVry&#xA;/DI63XePW1Uz0HZ/5e9+K/Kv0o/zh5YXXtORYZPq2p2b+vp12NjHKviRvxam/wB/bKtLqPClvvE7&#xA;EN2s0vjR22kNwfNI/LnlvzHqOpNr/mlhFqNvG1vptsgUpCQOLT0+JeTHcf7VMnPqMcI+Hi+k7nz8&#xA;nE02myzl4mb6htEd3myzSrXVLdJl1C9F6WkLQP6axlYz0VuNAxHjTMHLKJrhFOxxRmL4jxIS38uo&#xA;rcbkpPbGKeOSIqQCZ5/Wrmvjpe/cUftNuZLN3c9vsFKcPl26szHNZXnK6iaWj3Clw8UxU8HIYNUe&#xA;mvxfhkY6WUN4y9Qvn3Hp9nNJzCWxG3krzadqz/VboXEJ1G3MgqY2EJjlpVKBuW3FaGvbJyxZDUrH&#xA;GL927ETjuK9JS668nNOsEbSwuixSRzySRc35Sy+q7w70RiSaHtlE9DdCxyN7d5ux3NkdTVoibyqL&#xA;l7q4nuZVu5pfUgeN2CR+ltASv7RQbmveuTlo+KySeInbyrkxGeqAG34tM4rKZdR+uSSBibdIHQCg&#xA;LKxYt1P83TMkYzx8RPSmoyHDXmllj5amh02XTpZLcQtD6Mc8MJSaopxd2LsGIp4ZjY9IRAwJFVVg&#xA;b/e2yzgy4t/m658v317FO2oSQzzTfVk9JVZIvSt5vVYbl25PVhjPTSmDxkEnh91A39qxzCNcN9ft&#xA;CYaVY3Vlp/1J5FcQ1jtZB19ID4OYoByXpt1y/DjlCHCTy5e7o15JCUrQFhoF+ILaK/njK2dsba2j&#xA;gVqVaMRmR2Y/EePagyjHppUBIj0xoV7qtsnmFmhzNozQ9NubCAwy/VioVFQ28TRMeIpWQl35HLtP&#xA;iMBR4fgK+e7DLMSNi0MdE1BrXULFp4haXbTSROFb1FeaQyUbfiVFSNsr/Ly4ZRscMr9+5tl4osGt&#xA;xS19Au7hLeG5kgit4ZjO62SNbksq0j/afoxJJr4YDppSoEgAG/Tt7k+MBZF357tP5euYLYwWM4aN&#xA;LqO6t47gs3AqeTgv8TMGb4vpOJ0piKif4gRf2qMwJsjpTp/Lt1PAHlnhlvjci6laSItAaRGIR+ny&#xA;B4qrfzdcZaWRG5BlxXy25VVKMwB5bVXn3rL3y5dXE1vdA26XlpEPq8iIyIsySc1HD4vgZSQ3xfLI&#xA;5NLKREtuKI299/cmOYAEb0UTPo97capDcyyxejFIsynhWdCF4mJJNv3bHc1Fe2WSwSlMEkUDfn7r&#xA;7mIyARoK99p9416l/YzJHcLGYZEmUvG6cuQ+yVKlT3yeTFLi4oneq3YwmKo8lKTR7ucvJc3CNPLZ&#xA;y2rsiFVrK3LkBU7L065E4JS3J3MSPmkZAOQ62vn0q5H1Oe0mWO8s4zDV1LRyRsF5KwBUjdAQQdsM&#xA;sJ9JifVEV70DINwRsVFtEupbHUxcTpJf6lCYi6qViQBGWNVBLGilia5E6eRjKz6pivLyZeKARQ2i&#xA;u1LRJLgWTQGANZqyCO4iMsRDKB9kMnTjthy6cy4ar094sIhlq7vds6BFPLcNecJEnht4wsYKcJIO&#xA;Z5x7krvJ8O+2P5YSJ4uoH2Xy+a+LVV3n7UFN5WvDp8OnpdRy26qUkeaOsisZC/qxEHZ/ip18DlMt&#xA;HLgELseY8+Y82wZxxcVbv//Z</xmpGImg:image>
               </rdf:li>
            </rdf:Alt>
         </xmp:Thumbnails>
      </rdf:Description>
      <rdf:Description rdf:about=""
            xmlns:xmpMM="http://ns.adobe.com/xap/1.0/mm/"
            xmlns:stRef="http://ns.adobe.com/xap/1.0/sType/ResourceRef#"
            xmlns:stEvt="http://ns.adobe.com/xap/1.0/sType/ResourceEvent#">
         <xmpMM:RenditionClass>proof:pdf</xmpMM:RenditionClass>
         <xmpMM:OriginalDocumentID>uuid:65E6390686CF11DBA6E2D887CEACB407</xmpMM:OriginalDocumentID>
         <xmpMM:DocumentID>xmp.did:70B4063F321BEE118A93874ECB20291D</xmpMM:DocumentID>
         <xmpMM:InstanceID>xmp.iid:70B4063F321BEE118A93874ECB20291D</xmpMM:InstanceID>
         <xmpMM:DerivedFrom rdf:parseType="Resource">
            <stRef:instanceID>xmp.iid:397dc154-f135-df4b-95d5-bd88e59a376b</stRef:instanceID>
            <stRef:documentID>xmp.did:397dc154-f135-df4b-95d5-bd88e59a376b</stRef:documentID>
            <stRef:originalDocumentID>uuid:65E6390686CF11DBA6E2D887CEACB407</stRef:originalDocumentID>
            <stRef:renditionClass>proof:pdf</stRef:renditionClass>
         </xmpMM:DerivedFrom>
         <xmpMM:History>
            <rdf:Seq>
               <rdf:li rdf:parseType="Resource">
                  <stEvt:action>saved</stEvt:action>
                  <stEvt:instanceID>xmp.iid:cf3acd26-0e2c-f844-aec5-e87922f23de6</stEvt:instanceID>
                  <stEvt:when>2023-07-05T14:46:03+02:00</stEvt:when>
                  <stEvt:softwareAgent>Adobe Illustrator CC 23.0 (Windows)</stEvt:softwareAgent>
                  <stEvt:changed>/</stEvt:changed>
               </rdf:li>
               <rdf:li rdf:parseType="Resource">
                  <stEvt:action>saved</stEvt:action>
                  <stEvt:instanceID>xmp.iid:70B4063F321BEE118A93874ECB20291D</stEvt:instanceID>
                  <stEvt:when>2023-07-05T14:48:31+02:00</stEvt:when>
                  <stEvt:softwareAgent>Adobe Illustrator CS6 (Windows)</stEvt:softwareAgent>
                  <stEvt:changed>/</stEvt:changed>
               </rdf:li>
            </rdf:Seq>
         </xmpMM:History>
      </rdf:Description>
      <rdf:Description rdf:about=""
            xmlns:illustrator="http://ns.adobe.com/illustrator/1.0/">
         <illustrator:StartupProfile>Web</illustrator:StartupProfile>
      </rdf:Description>
      <rdf:Description rdf:about=""
            xmlns:xmpTPg="http://ns.adobe.com/xap/1.0/t/pg/"
            xmlns:stDim="http://ns.adobe.com/xap/1.0/sType/Dimensions#"
            xmlns:xmpG="http://ns.adobe.com/xap/1.0/g/">
         <xmpTPg:NPages>1</xmpTPg:NPages>
         <xmpTPg:HasVisibleTransparency>False</xmpTPg:HasVisibleTransparency>
         <xmpTPg:HasVisibleOverprint>False</xmpTPg:HasVisibleOverprint>
         <xmpTPg:MaxPageSize rdf:parseType="Resource">
            <stDim:w>210.001824</stDim:w>
            <stDim:h>18.247120</stDim:h>
            <stDim:unit>Millimeters</stDim:unit>
         </xmpTPg:MaxPageSize>
         <xmpTPg:PlateNames>
            <rdf:Seq>
               <rdf:li>Cyan</rdf:li>
               <rdf:li>Magenta</rdf:li>
               <rdf:li>Yellow</rdf:li>
               <rdf:li>Black</rdf:li>
            </rdf:Seq>
         </xmpTPg:PlateNames>
         <xmpTPg:SwatchGroups>
            <rdf:Seq>
               <rdf:li rdf:parseType="Resource">
                  <xmpG:groupName>Groupe de nuances par défaut</xmpG:groupName>
                  <xmpG:groupType>0</xmpG:groupType>
               </rdf:li>
            </rdf:Seq>
         </xmpTPg:SwatchGroups>
      </rdf:Description>
      <rdf:Description rdf:about=""
            xmlns:pdf="http://ns.adobe.com/pdf/1.3/">
         <pdf:Producer>Adobe PDF library 15.00</pdf:Producer>
      </rdf:Description>
      <rdf:Description rdf:about=""
            xmlns:pdfx="http://ns.adobe.com/pdfx/1.3/">
         <pdfx:CreatorVersion>21.0.0</pdfx:CreatorVersion>
      </rdf:Description>
   </rdf:RDF>
</x:xmpmeta>
                                                                                                    
                                                                                                    
                                                                                                    
                                                                                                    
                                                                                                    
                                                                                                    
                                                                                                    
                                                                                                    
                                                                                                    
                                                                                                    
                                                                                                    
                                                                                                    
                                                                                                    
                                                                                                    
                                                                                                    
                                                                                                    
                                                                                                    
                                                                                                    
                                                                                                    
                                                                                                    
                           
<?xpacket end="w"?>
	</metadata>
<g>
	<path fill="#0092D4" d="M477.542,407.333c0.016-1.128-0.023-1.995-0.109-2.598c-0.158-1.022-0.508-1.92-1.045-2.697
		c-0.592-0.876-1.344-1.524-2.256-1.933c-0.914-0.406-1.936-0.611-3.072-0.611c-1.914,0-3.471,0.602-4.672,1.814
		c-1.197,1.208-1.795,2.939-1.795,5.199c0,2.42,0.66,4.162,1.988,5.234c1.33,1.071,2.863,1.608,4.604,1.608
		c2.105,0,3.744-0.636,4.912-1.911c0.754-0.794,1.178-1.581,1.27-2.358h-3.488c-0.201,0.386-0.439,0.685-0.705,0.898
		c-0.486,0.398-1.117,0.599-1.895,0.599c-0.734,0-1.361-0.161-1.881-0.493c-0.859-0.524-1.316-1.442-1.365-2.751H477.542z
		 M473.996,405.079h-5.881c0.123-0.849,0.428-1.524,0.91-2.019c0.48-0.5,1.162-0.748,2.035-0.748c0.805,0,1.486,0.23,2.027,0.703
		C473.632,403.485,473.937,404.173,473.996,405.079 M459.349,412.903h3.32v-13.065h-3.461v7.109c0,0.839-0.111,1.512-0.334,2.027
		c-0.432,0.94-1.225,1.413-2.387,1.413c-0.908,0-1.514-0.329-1.826-0.995c-0.176-0.374-0.26-0.935-0.26-1.678v-7.876h-3.5v7.876
		c0,1.495,0.189,2.625,0.564,3.393c0.668,1.388,1.967,2.086,3.895,2.086c0.668,0,1.252-0.089,1.748-0.265
		c0.498-0.176,1.016-0.502,1.547-0.982c0.18-0.151,0.33-0.329,0.455-0.527c0.127-0.201,0.209-0.319,0.238-0.361V412.903z
		 M444.798,418.08h3.379v-18.215h-3.297v1.933c-0.406-0.693-0.805-1.195-1.197-1.502c-0.67-0.532-1.549-0.802-2.635-0.802
		c-1.564,0-2.883,0.653-3.947,1.955c-1.068,1.304-1.602,3.043-1.602,5.216c0,2.017,0.533,3.63,1.594,4.835
		c1.063,1.208,2.35,1.812,3.857,1.812c1.072,0,1.918-0.208,2.537-0.616c0.615-0.414,1.055-0.881,1.311-1.411V418.08z
		 M444.898,406.355c0,1.017-0.16,1.858-0.482,2.519c-0.498,1.01-1.334,1.512-2.51,1.512c-1.217,0-2.051-0.547-2.498-1.643
		c-0.24-0.579-0.361-1.316-0.361-2.219c0-1.354,0.264-2.361,0.787-3.024c0.527-0.666,1.219-0.997,2.082-0.997
		c1.227,0,2.082,0.566,2.574,1.705C444.757,404.836,444.898,405.554,444.898,406.355 M429.972,412.903h3.465v-13.065h-3.465V412.903
		z M429.972,398.284h3.465v-3.152h-3.465V398.284z M427.128,412.903l0.023-8.232c0-0.844-0.037-1.49-0.117-1.928
		c-0.129-0.666-0.375-1.225-0.744-1.68c-0.455-0.557-0.963-0.95-1.521-1.173c-0.557-0.225-1.127-0.336-1.703-0.336
		c-0.861,0-1.648,0.181-2.348,0.54c-0.662,0.358-1.221,0.923-1.666,1.69c-0.256-0.639-0.631-1.161-1.127-1.569
		c-0.615-0.44-1.422-0.661-2.422-0.661c-1.051,0-1.912,0.257-2.576,0.767c-0.373,0.287-0.773,0.772-1.197,1.453v-1.908h-3.318
		v13.038h3.463v-7.859c0-0.712,0.094-1.25,0.275-1.608c0.334-0.631,0.99-0.948,1.965-0.948c0.842,0,1.4,0.317,1.691,0.948
		c0.158,0.352,0.236,0.913,0.236,1.69v7.777h3.443v-7.777c0-0.584,0.092-1.083,0.273-1.497c0.359-0.784,1.01-1.175,1.951-1.175
		c0.818,0,1.375,0.305,1.68,0.911c0.16,0.319,0.236,0.728,0.236,1.223v8.316H427.128z M404.742,411.307
		c1.102-1.361,1.654-3,1.654-4.917c0-1.883-0.553-3.514-1.654-4.897c-1.104-1.381-2.775-2.069-5.02-2.069
		c-2.25,0-3.922,0.688-5.023,2.069c-1.102,1.383-1.654,3.014-1.654,4.897c0,1.917,0.553,3.556,1.654,4.917
		c1.102,1.361,2.773,2.042,5.023,2.042C401.966,413.349,403.638,412.668,404.742,411.307 M402.81,406.39
		c0,1.309-0.266,2.316-0.799,3.026c-0.537,0.712-1.305,1.066-2.303,1.066c-1,0-1.77-0.354-2.309-1.066
		c-0.537-0.71-0.807-1.717-0.807-3.026s0.27-2.316,0.807-3.021c0.539-0.705,1.309-1.057,2.309-1.057
		c0.998,0,1.766,0.352,2.303,1.057C402.544,404.074,402.81,405.081,402.81,406.39 M387.539,412.903h3.502v-8.794
		c0-1.638-0.43-2.811-1.283-3.519c-0.854-0.705-1.953-1.062-3.301-1.062c-1.074,0-1.959,0.267-2.658,0.792
		c-0.391,0.294-0.807,0.779-1.242,1.453v-1.908h-3.307v13.038h3.412v-7.067c0-0.812,0.111-1.47,0.334-1.99
		c0.432-0.982,1.219-1.477,2.367-1.477c0.939,0,1.572,0.334,1.904,1.007c0.186,0.369,0.271,0.894,0.271,1.582V412.903
		L387.539,412.903z M375.494,411.307c1.104-1.361,1.656-3,1.656-4.917c0-1.883-0.553-3.514-1.656-4.897
		c-1.104-1.381-2.775-2.069-5.021-2.069c-2.244,0-3.916,0.688-5.02,2.069c-1.102,1.383-1.654,3.014-1.654,4.897
		c0,1.917,0.553,3.556,1.654,4.917c1.104,1.361,2.775,2.042,5.02,2.042C372.718,413.349,374.39,412.668,375.494,411.307
		 M373.566,406.39c0,1.309-0.27,2.316-0.805,3.026c-0.537,0.712-1.303,1.066-2.301,1.066c-1,0-1.77-0.354-2.309-1.066
		c-0.537-0.71-0.807-1.717-0.807-3.026s0.27-2.316,0.807-3.021c0.539-0.705,1.309-1.057,2.309-1.057
		c0.998,0,1.764,0.352,2.301,1.057C373.296,404.074,373.566,405.081,373.566,406.39 M359.132,404.527h3.498
		c-0.188-1.861-0.807-3.16-1.85-3.895c-1.045-0.732-2.387-1.104-4.023-1.104c-1.93,0-3.439,0.624-4.537,1.871
		c-1.096,1.248-1.643,2.989-1.643,5.231c0,1.984,0.496,3.6,1.488,4.847c0.992,1.245,2.539,1.871,4.641,1.871
		c2.104,0,3.689-0.75,4.762-2.242c0.674-0.928,1.049-1.908,1.129-2.947h-3.486c-0.072,0.683-0.275,1.245-0.615,1.675
		c-0.336,0.433-0.902,0.648-1.703,0.648c-1.129,0-1.896-0.542-2.305-1.631c-0.225-0.582-0.342-1.348-0.342-2.304
		c0-1.004,0.117-1.813,0.342-2.417c0.42-1.141,1.211-1.712,2.363-1.712c0.811,0,1.408,0.262,1.791,0.79
		C358.904,403.602,359.07,404.04,359.132,404.527 M335.705,412.903h13.385v-3.175h-9.777v-4.543h8.578v-3.068h-8.578v-3.749h9.346
		v-3.127h-12.953V412.903L335.705,412.903z M317.996,407.333h9.516c0.018-1.128-0.023-1.995-0.113-2.598
		c-0.16-1.022-0.508-1.92-1.043-2.697c-0.592-0.876-1.344-1.524-2.256-1.933c-0.908-0.406-1.934-0.611-3.072-0.611
		c-1.914,0-3.471,0.602-4.668,1.814c-1.201,1.208-1.803,2.939-1.803,5.199c0,2.42,0.668,4.162,1.996,5.234
		c1.328,1.071,2.861,1.608,4.6,1.608c2.107,0,3.746-0.636,4.912-1.911c0.754-0.794,1.174-1.581,1.27-2.358h-3.488
		c-0.201,0.386-0.438,0.685-0.701,0.898c-0.488,0.398-1.121,0.599-1.898,0.599c-0.732,0-1.361-0.161-1.883-0.493
		C318.503,409.56,318.05,408.642,317.996,407.333 M318.083,405.079c0.121-0.849,0.426-1.524,0.904-2.019
		c0.486-0.5,1.164-0.748,2.043-0.748c0.803,0,1.479,0.23,2.025,0.703c0.545,0.47,0.844,1.158,0.908,2.063H318.083z M313.378,403.005
		c0.17,0.008,0.359,0.022,0.578,0.047v-3.499c-0.152-0.01-0.25-0.013-0.295-0.018l-0.162-0.007c-1.023,0-1.854,0.27-2.49,0.804
		c-0.395,0.322-0.852,0.913-1.379,1.784v-2.279h-3.262v13.065h3.441v-6.243c0-1.046,0.129-1.818,0.395-2.326
		c0.473-0.891,1.393-1.341,2.766-1.341C313.078,402.993,313.212,402.995,313.378,403.005 M302.955,411.25
		c0.965-1.336,1.447-3.017,1.447-5.045c0-1.958-0.49-3.553-1.465-4.793c-0.98-1.237-2.332-1.858-4.061-1.858
		c-0.958,0-1.745,0.2-2.366,0.599c-0.52,0.322-0.998,0.785-1.431,1.393v-6.283h-3.417v17.641h3.365v-1.641
		c0.46,0.639,0.886,1.086,1.277,1.344c0.661,0.431,1.532,0.646,2.616,0.646C300.648,413.252,301.992,412.584,302.955,411.25
		 M300.818,406.563c0,1.158-0.246,2.093-0.736,2.804c-0.492,0.712-1.18,1.066-2.067,1.066c-1.024,0-1.784-0.366-2.284-1.101
		c-0.5-0.738-0.75-1.661-0.75-2.782c0-0.95,0.124-1.727,0.364-2.321c0.468-1.128,1.326-1.69,2.574-1.69
		c1.235,0,2.075,0.574,2.536,1.725C300.695,404.871,300.818,405.641,300.818,406.563 M288.988,412.903l0.022-8.232
		c0-0.844-0.04-1.49-0.119-1.928c-0.129-0.666-0.376-1.225-0.745-1.68c-0.453-0.557-0.963-0.95-1.52-1.173
		c-0.559-0.225-1.126-0.336-1.703-0.336c-0.863,0-1.646,0.181-2.348,0.54c-0.663,0.358-1.217,0.923-1.668,1.69
		c-0.255-0.639-0.631-1.161-1.125-1.569c-0.614-0.44-1.423-0.661-2.42-0.661c-1.054,0-1.913,0.257-2.573,0.767
		c-0.378,0.287-0.777,0.772-1.203,1.453v-1.908h-3.318v13.038h3.464v-7.859c0-0.712,0.091-1.25,0.277-1.608
		c0.332-0.631,0.988-0.948,1.965-0.948c0.839,0,1.401,0.317,1.688,0.948c0.159,0.352,0.238,0.913,0.238,1.69v7.777h3.439v-7.777
		c0-0.584,0.092-1.083,0.28-1.497c0.359-0.784,1.007-1.175,1.952-1.175c0.814,0,1.371,0.305,1.675,0.911
		c0.164,0.319,0.243,0.728,0.243,1.223v8.316H288.988z M264.728,412.903h3.714v-0.502c-0.22-0.106-0.389-0.235-0.5-0.398
		c-0.114-0.159-0.181-0.463-0.205-0.908c-0.018-0.589-0.025-1.096-0.025-1.509v-5.994c0-1.571-0.557-2.643-1.67-3.209
		c-1.116-0.569-2.395-0.854-3.831-0.854c-2.205,0-3.761,0.577-4.667,1.727c-0.572,0.735-0.891,1.673-0.965,2.819h3.296
		c0.079-0.507,0.245-0.903,0.485-1.198c0.339-0.401,0.92-0.604,1.737-0.604c0.73,0,1.284,0.102,1.661,0.305
		c0.374,0.205,0.564,0.576,0.564,1.113c0,0.438-0.248,0.76-0.737,0.97c-0.272,0.119-0.73,0.218-1.363,0.297l-1.173,0.144
		c-1.329,0.17-2.333,0.45-3.017,0.839c-1.247,0.72-1.871,1.883-1.871,3.486c0,1.24,0.386,2.197,1.163,2.873
		c0.777,0.673,1.757,1.012,2.947,1.012c0.933,0,1.767-0.21,2.509-0.636c0.616-0.359,1.163-0.792,1.638-1.307
		c0.022,0.294,0.054,0.56,0.094,0.792C264.555,412.391,264.627,412.641,264.728,412.903 M264.31,407.823
		c-0.025,1.141-0.352,1.928-0.98,2.361c-0.631,0.431-1.314,0.648-2.061,0.648c-0.473,0-0.869-0.131-1.198-0.391
		c-0.332-0.257-0.495-0.681-0.495-1.265c0-0.653,0.27-1.138,0.807-1.447c0.317-0.188,0.841-0.342,1.569-0.47l0.78-0.144
		c0.388-0.072,0.695-0.151,0.916-0.232c0.223-0.087,0.445-0.196,0.663-0.332V407.823z M250.718,412.903h3.489v-7.676
		c0-1.17-0.042-2.009-0.121-2.526c-0.079-0.512-0.297-1.017-0.656-1.502c-0.421-0.577-0.96-1.005-1.616-1.287
		c-0.661-0.28-1.388-0.418-2.19-0.418c-0.718,0-1.398,0.151-2.049,0.451c-0.646,0.302-1.218,0.826-1.71,1.588v-6.233h-3.417v17.604
		h3.417v-7.077c0-1.119,0.23-1.98,0.693-2.586c0.465-0.606,1.148-0.906,2.042-0.906c0.866,0,1.452,0.304,1.762,0.911
		c0.237,0.436,0.356,1.002,0.356,1.702V412.903L250.718,412.903z M236.43,401.122h3.692c-0.057-1.101-0.46-2.2-1.21-3.296
		c-1.361-1.945-3.509-2.923-6.451-2.923c-2.197,0-4.006,0.728-5.429,2.183c-1.636,1.67-2.452,4.046-2.452,7.129
		c0,2.854,0.718,5.098,2.158,6.736c1.438,1.628,3.413,2.445,5.926,2.445c2.032,0,3.697-0.606,4.999-1.812
		c1.299-1.208,2.108-2.769,2.42-4.696h-3.663c-0.245,0.911-0.549,1.593-0.916,2.049c-0.666,0.849-1.63,1.27-2.895,1.27
		c-1.235,0-2.252-0.49-3.056-1.48c-0.799-0.985-1.2-2.47-1.2-4.449c0-1.982,0.381-3.516,1.138-4.598
		c0.76-1.083,1.797-1.625,3.113-1.625c1.289,0,2.264,0.383,2.922,1.15C235.893,399.637,236.195,400.276,236.43,401.122
		 M207.746,407.333h9.515c0.015-1.128-0.022-1.995-0.114-2.598c-0.159-1.022-0.505-1.92-1.04-2.697
		c-0.594-0.876-1.349-1.524-2.257-1.933c-0.911-0.406-1.938-0.611-3.071-0.611c-1.915,0-3.472,0.602-4.672,1.814
		c-1.197,1.208-1.801,2.939-1.801,5.199c0,2.42,0.666,4.162,1.995,5.234c1.329,1.071,2.863,1.608,4.603,1.608
		c2.103,0,3.741-0.636,4.912-1.911c0.752-0.794,1.175-1.581,1.267-2.358h-3.489c-0.203,0.386-0.433,0.685-0.7,0.898
		c-0.487,0.398-1.118,0.599-1.898,0.599c-0.732,0-1.361-0.161-1.883-0.493C208.255,409.56,207.8,408.642,207.746,407.333
		 M207.833,405.079c0.124-0.849,0.425-1.524,0.908-2.019c0.483-0.5,1.163-0.748,2.039-0.748c0.804,0,1.48,0.23,2.024,0.703
		c0.544,0.47,0.851,1.158,0.911,2.063H207.833z M199.033,412.903h3.499v-8.794c0-1.638-0.428-2.811-1.284-3.519
		c-0.856-0.705-1.955-1.062-3.298-1.062c-1.074,0-1.962,0.267-2.663,0.792c-0.391,0.294-0.802,0.779-1.24,1.453v-1.908h-3.308
		v13.038h3.417v-7.067c0-0.812,0.111-1.47,0.332-1.99c0.428-0.982,1.218-1.477,2.368-1.477c0.936,0,1.569,0.334,1.903,1.007
		c0.183,0.369,0.275,0.894,0.275,1.582V412.903L199.033,412.903z M184.443,412.903h3.318v-13.065h-3.459v7.109
		c0,0.839-0.111,1.512-0.336,2.027c-0.428,0.94-1.222,1.413-2.383,1.413c-0.908,0-1.515-0.329-1.826-0.995
		c-0.176-0.374-0.26-0.935-0.26-1.678v-7.876h-3.499v7.876c0,1.495,0.186,2.625,0.562,3.393c0.668,1.388,1.967,2.086,3.895,2.086
		c0.668,0,1.252-0.089,1.75-0.265c0.497-0.176,1.015-0.502,1.546-0.982c0.176-0.151,0.329-0.329,0.456-0.527
		c0.128-0.201,0.205-0.319,0.237-0.361V412.903L184.443,412.903z M165.219,407.333h9.514c0.015-1.128-0.022-1.995-0.111-2.598
		c-0.161-1.022-0.507-1.92-1.042-2.697c-0.594-0.876-1.346-1.524-2.257-1.933c-0.913-0.406-1.938-0.611-3.073-0.611
		c-1.913,0-3.472,0.602-4.672,1.814c-1.198,1.208-1.799,2.939-1.799,5.199c0,2.42,0.666,4.162,1.994,5.234
		c1.327,1.071,2.861,1.608,4.603,1.608c2.104,0,3.742-0.636,4.912-1.911c0.754-0.794,1.175-1.581,1.267-2.358h-3.486
		c-0.203,0.386-0.44,0.685-0.703,0.898c-0.488,0.398-1.119,0.599-1.896,0.599c-0.735,0-1.363-0.161-1.886-0.493
		C165.729,409.56,165.273,408.642,165.219,407.333 M165.303,405.079c0.124-0.849,0.428-1.524,0.911-2.019
		c0.482-0.5,1.163-0.748,2.037-0.748c0.807,0,1.484,0.23,2.026,0.703c0.544,0.47,0.849,1.158,0.913,2.063H165.303z M158.788,411.106
		c0.507-0.881,0.759-2.068,0.759-3.571V395.24h-3.692v12.355c0,0.856-0.079,1.46-0.235,1.821c-0.262,0.606-0.804,0.911-1.621,0.911
		c-0.824,0-1.364-0.28-1.614-0.834c-0.25-0.552-0.393-1.515-0.423-2.88v-0.408h-3.489v0.408c0,2.076,0.384,3.717,1.151,4.919
		c0.765,1.2,2.269,1.801,4.511,1.801C156.375,413.333,157.929,412.589,158.788,411.106"/>
	<path fill="#3B63AD" d="M595.275,407.331c0.02-1.128-0.018-1.992-0.111-2.596c-0.158-1.022-0.508-1.92-1.039-2.697
		c-0.592-0.878-1.346-1.524-2.26-1.933c-0.912-0.406-1.938-0.611-3.07-0.611c-1.912,0-3.471,0.602-4.67,1.812
		c-1.199,1.208-1.799,2.942-1.799,5.201c0,2.42,0.662,4.162,1.99,5.234c1.332,1.071,2.865,1.605,4.602,1.605
		c2.104,0,3.748-0.633,4.916-1.908c0.752-0.794,1.172-1.581,1.264-2.358h-3.482c-0.207,0.383-0.445,0.685-0.707,0.898
		c-0.488,0.398-1.115,0.599-1.895,0.599c-0.736,0-1.359-0.161-1.885-0.493c-0.857-0.524-1.313-1.445-1.367-2.754H595.275z
		 M591.732,405.079h-5.885c0.127-0.851,0.426-1.524,0.91-2.019c0.48-0.502,1.162-0.75,2.037-0.75c0.805,0,1.48,0.233,2.023,0.706
		C591.365,403.482,591.673,404.17,591.732,405.079 M573.574,404.094c-0.336-0.173-0.504-0.458-0.504-0.849
		c0-0.314,0.16-0.582,0.477-0.816c0.316-0.228,0.846-0.347,1.59-0.347c0.904,0,1.543,0.232,1.924,0.695
		c0.201,0.257,0.324,0.602,0.371,1.042h3.416c-0.152-1.596-0.74-2.722-1.775-3.373c-1.023-0.653-2.357-0.975-3.988-0.975
		c-1.723,0-3.057,0.43-4.004,1.299c-0.949,0.866-1.422,1.905-1.422,3.108c0,1.024,0.301,1.804,0.91,2.351
		c0.604,0.549,1.652,1.009,3.135,1.373c2.061,0.49,3.252,0.834,3.572,1.034c0.318,0.201,0.48,0.49,0.48,0.876
		c0,0.398-0.199,0.701-0.596,0.898c-0.396,0.198-0.936,0.299-1.604,0.299c-1.15,0-1.939-0.228-2.363-0.683
		c-0.24-0.255-0.398-0.69-0.467-1.297h-3.467c0,1.344,0.488,2.447,1.471,3.316c0.98,0.866,2.5,1.299,4.557,1.299
		c2.014,0,3.508-0.411,4.475-1.225c0.959-0.822,1.443-1.878,1.443-3.172c0-0.985-0.33-1.801-1.004-2.457
		c-0.678-0.646-1.697-1.128-3.061-1.45C575.101,404.596,573.914,404.279,573.574,404.094 M563.673,412.903h3.463v-13.065h-3.463
		V412.903z M563.673,398.281h3.463v-3.152h-3.463V398.281z M558.025,412.903h3.717v-0.504c-0.223-0.104-0.395-0.233-0.506-0.396
		c-0.111-0.159-0.18-0.463-0.203-0.908c-0.014-0.591-0.023-1.096-0.023-1.509v-5.994c0-1.571-0.561-2.643-1.672-3.212
		c-1.115-0.566-2.393-0.851-3.83-0.851c-2.205,0-3.762,0.577-4.666,1.727c-0.572,0.735-0.895,1.673-0.965,2.819h3.295
		c0.082-0.507,0.242-0.903,0.486-1.198c0.338-0.401,0.92-0.604,1.736-0.604c0.73,0,1.281,0.102,1.658,0.305
		c0.379,0.205,0.564,0.576,0.564,1.113c0,0.436-0.246,0.76-0.736,0.97c-0.273,0.119-0.729,0.218-1.363,0.297l-1.172,0.144
		c-1.326,0.17-2.332,0.45-3.018,0.839c-1.248,0.72-1.869,1.883-1.869,3.486c0,1.24,0.387,2.197,1.162,2.871
		c0.775,0.675,1.758,1.015,2.949,1.015c0.932,0,1.766-0.21,2.504-0.636c0.621-0.359,1.166-0.792,1.639-1.307
		c0.025,0.294,0.057,0.56,0.098,0.792C557.849,412.388,557.919,412.641,558.025,412.903 M557.607,407.823
		c-0.025,1.141-0.352,1.928-0.982,2.361c-0.629,0.431-1.314,0.646-2.063,0.646c-0.469,0-0.867-0.129-1.199-0.389
		c-0.326-0.257-0.49-0.683-0.49-1.265c0-0.653,0.27-1.138,0.807-1.45c0.316-0.186,0.842-0.339,1.57-0.468l0.775-0.144
		c0.391-0.072,0.695-0.151,0.92-0.235c0.221-0.084,0.443-0.193,0.662-0.329V407.823z M544.875,404.527h3.5
		c-0.191-1.861-0.813-3.16-1.854-3.895c-1.045-0.732-2.383-1.104-4.021-1.104c-1.928,0-3.439,0.624-4.535,1.871
		c-1.098,1.245-1.646,2.987-1.646,5.231c0,1.987,0.498,3.6,1.49,4.847s2.236,1.868,3.744,1.868l-1.182,1.799l0.514,0.478
		c0.199-0.064,0.381-0.111,0.539-0.148c0.162-0.035,0.316-0.055,0.465-0.055c0.268,0,0.516,0.067,0.748,0.203
		c0.23,0.139,0.346,0.374,0.346,0.712c0,0.225-0.104,0.44-0.309,0.648c-0.211,0.201-0.555,0.307-1.035,0.307
		c-0.238,0-0.547-0.047-0.93-0.144c-0.172-0.042-0.482-0.128-0.938-0.267l-0.453,1.035c0.477,0.173,0.848,0.302,1.111,0.383
		c0.576,0.166,1.068,0.25,1.477,0.25c0.939,0,1.709-0.215,2.311-0.644s0.9-1.009,0.9-1.75c0-0.591-0.195-1.046-0.578-1.363
		s-0.898-0.475-1.549-0.475c-0.129,0-0.248,0.01-0.361,0.032c-0.111,0.02-0.297,0.057-0.564,0.114l0.758-1.116
		c1.854,0,3.318-0.747,4.389-2.239c0.674-0.93,1.047-1.908,1.129-2.947h-3.488c-0.07,0.683-0.277,1.245-0.609,1.675
		c-0.336,0.431-0.904,0.648-1.703,0.648c-1.127,0-1.895-0.544-2.299-1.628c-0.227-0.581-0.336-1.354-0.336-2.306
		c0-1.007,0.109-1.813,0.336-2.422c0.424-1.138,1.211-1.708,2.361-1.708c0.805,0,1.4,0.262,1.783,0.79
		C544.648,403.602,544.814,404.037,544.875,404.527 M530.755,412.903h3.5v-8.794c0-1.641-0.43-2.811-1.285-3.519
		c-0.854-0.708-1.953-1.062-3.297-1.062c-1.072,0-1.961,0.265-2.662,0.792c-0.389,0.294-0.805,0.779-1.242,1.453v-1.908h-3.305
		v13.038h3.414v-7.067c0-0.812,0.113-1.473,0.332-1.992c0.43-0.982,1.217-1.477,2.367-1.477c0.936,0,1.572,0.336,1.906,1.009
		c0.18,0.366,0.271,0.894,0.271,1.582V412.903L530.755,412.903z M516.839,412.903h3.713v-0.504
		c-0.223-0.104-0.391-0.233-0.498-0.396c-0.115-0.159-0.182-0.463-0.209-0.908c-0.014-0.591-0.02-1.096-0.02-1.509v-5.994
		c0-1.571-0.559-2.643-1.676-3.212c-1.115-0.566-2.391-0.851-3.828-0.851c-2.207,0-3.758,0.577-4.668,1.727
		c-0.57,0.735-0.891,1.673-0.963,2.819h3.295c0.08-0.507,0.244-0.903,0.488-1.198c0.34-0.401,0.916-0.604,1.736-0.604
		c0.73,0,1.283,0.102,1.656,0.305c0.379,0.205,0.566,0.576,0.566,1.113c0,0.436-0.248,0.76-0.734,0.97
		c-0.277,0.119-0.73,0.218-1.367,0.297l-1.17,0.144c-1.328,0.17-2.336,0.45-3.016,0.839c-1.25,0.72-1.873,1.883-1.873,3.486
		c0,1.24,0.385,2.197,1.162,2.871c0.777,0.675,1.76,1.015,2.947,1.015c0.934,0,1.764-0.21,2.506-0.636
		c0.619-0.359,1.166-0.792,1.639-1.307c0.023,0.294,0.061,0.56,0.098,0.792C516.664,412.388,516.736,412.641,516.839,412.903
		 M516.421,407.823c-0.027,1.141-0.35,1.928-0.98,2.361c-0.629,0.431-1.316,0.646-2.064,0.646c-0.467,0-0.867-0.129-1.197-0.389
		c-0.326-0.257-0.49-0.683-0.49-1.265c0-0.653,0.266-1.138,0.805-1.45c0.318-0.186,0.84-0.339,1.572-0.468l0.775-0.144
		c0.389-0.072,0.693-0.151,0.916-0.235c0.223-0.084,0.445-0.193,0.664-0.329V407.823z M506.949,403.005
		c0.168,0.008,0.363,0.022,0.576,0.047v-3.499c-0.154-0.01-0.248-0.013-0.291-0.02l-0.164-0.005c-1.021,0-1.854,0.27-2.494,0.804
		c-0.389,0.322-0.85,0.913-1.373,1.784v-2.279h-3.264v13.065h3.439v-6.243c0-1.046,0.133-1.818,0.395-2.326
		c0.473-0.891,1.396-1.341,2.771-1.341C506.646,402.993,506.783,402.995,506.949,403.005 M489.292,398.368h8.932v-3.105h-12.596
		v17.641h3.664v-7.406h7.83v-3.068h-7.83V398.368z"/>
	<path fill="#0092D4" d="M137.542,441.83v-4.89h-0.94l-1.391,4.135l-1.408-4.135h-0.95v4.89h0.631v-2.883
		c0-0.119-0.005-0.3-0.01-0.547c-0.01-0.24-0.013-0.429-0.013-0.545v-0.15l1.416,4.125h0.653l1.405-4.125
		c0,0.265-0.007,0.512-0.015,0.744c-0.005,0.23-0.007,0.396-0.007,0.498v2.883H137.542z M114.72,446.986
		c21.932-20.572,18.183-39.56,17.891-39.56c-8.267,0-8.077-8.544-8.077-8.544h-9.814h-0.171h-9.816c0,0,0.19,8.544-8.074,8.544
		c-0.29,0-4.041,18.987,17.89,39.56H114.72z M114.599,440.323h-0.05c-14.431-14.488-13.85-29.415-13.419-29.558
		c7.149-2.398,7.221-7.542,7.221-7.542h6.198h0.05h6.204c0,0,0.069,5.145,7.213,7.542
		C128.446,410.909,129.03,425.835,114.599,440.323 M114.616,427.379c5.761,0,10.438-4.702,10.438-10.492
		c0-5.797-4.677-10.497-10.438-10.497c-5.766,0-10.438,4.699-10.438,10.497C104.178,422.677,108.85,427.379,114.616,427.379
		 M124.247,416.595h-1.557c-0.049-1.447-0.478-2.793-1.188-3.959c0.329,0.111,0.767,0.161,0.777-0.2
		c-0.482-0.196-1.02-0.463-1.492-0.782c-0.077-0.089-0.146-0.183-0.223-0.267l1.096-1.106
		C123.207,411.945,124.175,414.155,124.247,416.595 M120.498,421.386c-0.094,0.126-0.195,0.242-0.297,0.364
		c-0.106-0.481-0.299-0.98-0.406-1.186l-0.114-0.144c0.633-0.916,1.01-2.012,1.074-3.194h1.247
		c-0.052,1.161-0.374,2.237-0.893,3.202c-0.136-0.02-0.265-0.04-0.364-0.084C120.505,420.641,120.354,421.071,120.498,421.386
		 M119.129,419.931c-0.141-0.106-0.277-0.215-0.381-0.352c-0.156-0.213-0.228-0.495-0.304-0.782
		c0.188-0.374,0.319-0.772,0.394-1.198c0.156-0.134,0.316-0.26,0.485-0.374h0.693C119.956,418.221,119.651,419.146,119.129,419.931
		 M117.909,414.051l0.767-0.767c0.785,0.893,1.279,2.042,1.346,3.311h-0.218c-0.304-0.48-0.762-0.77-1.101-1.289
		C118.434,414.893,118.184,414.462,117.909,414.051 M120.483,413.893c-0.406-0.425-0.834-0.779-1.186-1.234l0.498-0.5l0.228-0.012
		c0.116,0,0.203,0.005,0.29,0.012c1.002,1.22,1.631,2.749,1.695,4.437h-1.248c-0.047-1.009-0.334-1.952-0.807-2.779
		C120.114,413.885,120.29,413.92,120.483,413.893 M121.636,423.521l-1.101-1.104c0.196-0.207,0.369-0.428,0.537-0.655
		c0.19,0.008,0.243-0.139,0.51-0.384c0.299-0.267,0.307-0.279,0.745-0.29c0.057-0.378-0.178-0.515-0.487-0.579
		c0.498-0.998,0.799-2.104,0.849-3.284h1.557C124.163,419.661,123.185,421.863,121.636,423.521 M114.935,425.003
		c1.987-0.079,3.786-0.871,5.154-2.143l1.099,1.106c-1.65,1.546-3.838,2.517-6.253,2.596V425.003z M114.935,423.059
		c1.037-0.058,2.004-0.364,2.843-0.869c0.24,0.055,0.52,0.003,0.824,0.042c0.27,0.037,0.515,0.201,0.755,0.347
		c-1.215,1.02-2.739,1.658-4.422,1.732V423.059z M114.935,421.539c0.378,0.512,1.084,0.502,1.754,0.394
		c-0.547,0.225-1.138,0.347-1.754,0.384V421.539z M114.935,417.679l0.418,0.423c-0.084,0.188-0.074,0.453,0.141,0.532
		c0.03-0.168,0.069-0.237,0.114-0.279l0.332,0.336l-0.106,0.181l0.23-0.052c-0.329-0.04-0.79,0.557-0.975,0.807
		c-0.054,0.072-0.106,0.164-0.153,0.26V417.679z M115.727,417.226c-0.109,0.022-0.173,0.077-0.198,0.156l-0.156-0.156H115.727z
		 M115.375,416.595l0.228-0.228l0.01,0.228H115.375z M114.935,413.368l0.099-0.195c0.374,0.042,0.735,0.124,1.069,0.27
		c-0.116,0.151-0.21,0.336-0.287,0.537c-0.126,0.336-0.307,0.693-0.361,1.054c-0.035,0.225,0,0.374,0.074,0.515l-0.594,0.596
		V413.368z M114.935,411.451c1.27,0.077,2.41,0.582,3.296,1.38l-0.703,0.71l-0.134-0.176c-0.294-0.302-0.569-0.369-0.814-0.294
		c-0.5-0.26-1.057-0.421-1.646-0.465V411.451z M114.935,409.458c1.554,0.067,2.974,0.611,4.137,1.495
		c0.01,0.22,0.015,0.44,0.06,0.67c0.025,0.139,0,0.218,0.012,0.29l-0.25,0.252c-0.144-0.158-0.294-0.309-0.46-0.436
		c-0.23-0.084-0.5-0.27-0.552-0.094c-0.861-0.547-1.866-0.869-2.947-0.926V409.458z M114.935,407.204
		c2.427,0.079,4.627,1.059,6.283,2.625l-1.096,1.101c-0.086-0.082-0.186-0.148-0.275-0.225c-0.279-0.589-0.616-1.564-0.9-1.453
		c0.069,0.208-0.005,0.443,0.047,0.661l0.052,0.156c-1.188-0.787-2.599-1.245-4.11-1.307V407.204L114.935,407.204z M107.573,410.275
		l1.096,1.104c-1.267,1.386-2.063,3.204-2.133,5.216h-1.549C105.057,414.153,106.027,411.94,107.573,410.275 M110.912,416.595
		c0.059-0.802,0.366-1.526,0.851-2.105l0.579,0.582l-0.062,0.054c-0.361,0.443-0.067,0.619,0.193,1.002
		c0.042-0.272,0.047-0.572,0.054-0.869l0.428,0.431c-0.111,0.364,0.153,0.663,0.515,0.905H110.912z M113.861,417.226l-2.074,2.086
		c-0.488-0.574-0.802-1.29-0.874-2.086H113.861z M112.587,414.427l-0.384-0.386c0.19-0.166,0.401-0.307,0.621-0.43
		C112.691,413.861,112.624,414.138,112.587,414.427 M110.355,416.595h-1.146c0.069-1.274,0.564-2.42,1.354-3.313l0.812,0.814
		C110.788,414.779,110.419,415.642,110.355,416.595 M110.454,417.894c-0.178-0.049-0.366-0.089-0.522-0.126
		c-0.04,0.279-0.302,0.228-0.502,0.406c0.087,0.161,0.092,0.314,0.062,0.46c-0.153-0.448-0.245-0.916-0.277-1.408h1.146
		C110.377,417.454,110.404,417.676,110.454,417.894 M110.026,421.083l-0.841,0.849c-1.151-1.252-1.876-2.891-1.958-4.707h1.25
		c0.04,0.774,0.208,1.509,0.507,2.18c-0.245,0.243-0.505,0.47-0.641,0.683C108.984,420.604,109.185,421.116,110.026,421.083
		 M107.225,416.595c0.069-1.821,0.787-3.469,1.933-4.729l0.878,0.886c-0.918,1.029-1.497,2.363-1.566,3.843H107.225z
		 M114.299,408.763c-2.004,0.079-3.816,0.881-5.189,2.167l-1.096-1.101c1.653-1.566,3.853-2.546,6.286-2.625V408.763z
		 M114.299,410.71c-1.473,0.074-2.799,0.661-3.823,1.594l-0.881-0.883c1.252-1.161,2.89-1.883,4.704-1.962V410.71z M114.299,412.606
		c-0.948,0.069-1.807,0.445-2.49,1.042l-0.812-0.814c0.891-0.801,2.037-1.306,3.301-1.383V412.606z M114.299,415.667l-0.126-0.2
		c-0.334-0.522-0.468-0.356-0.698-0.149l-0.562-0.564c0.195-0.057,0.396-0.092,0.566-0.06c0.547,0.102,0.591,0.398,0.819,0.025
		V415.667z M114.299,420.611c-0.785-0.069-1.492-0.374-2.066-0.856l2.066-2.076V420.611z M114.299,422.316
		c-1.252-0.072-2.383-0.566-3.267-1.354l0.423-0.423c0.245-0.037,0.5,0.008,0.765-0.077c0.601,0.406,1.314,0.646,2.079,0.703
		V422.316z M114.299,424.311c-1.802-0.077-3.427-0.792-4.669-1.938l0.881-0.884c1.017,0.916,2.333,1.492,3.789,1.569V424.311z
		 M108.041,423.967l1.101-1.102c1.369,1.267,3.165,2.063,5.157,2.138v1.56C111.884,426.483,109.694,425.513,108.041,423.967
		 M107.598,423.523c-1.551-1.658-2.526-3.86-2.61-6.297h1.551c0.086,2.007,0.881,3.82,2.155,5.194L107.598,423.523z M109.8,417.733
		l0.131,0.034l0.01-0.034H109.8z M116.205,408.397c0.119-0.384-0.248-0.473-0.515-0.265l0.096,0.077l0.047-0.044
		C115.747,408.362,115.982,408.449,116.205,408.397 M118.421,411.72l0.013,0.01l0.131,0.032L118.421,411.72z M120.636,420.292
		l0.109,0.052l0.086-0.102L120.636,420.292z M82.925,441.238l5.708-37.353H77.13l-5.711,37.353H82.925z M57.942,417.8h10.88
		c-0.816-11.194-8.44-14.805-16.752-14.805c-12.702,0-19.687,10.044-19.034,22.132c0.547,9.989,6.149,17.002,16.977,17.002
		c15.525,0,17.844-11.246,18.316-15.066H57.04c-0.552,3.291-2.46,5.755-6.07,5.755c-5.276,0-6.268-4.813-6.439-7.898
		c-0.287-5.288,1.616-12.61,7.995-12.61C56.077,412.309,57.863,414.299,57.942,417.8 M27.536,429.312l4.001-25.426H20.031
		l-4.169,26.316c-0.262,1.883-0.928,3.028-2.972,3.028c-1.569,0-2.507-0.992-2.596-2.61c-0.077-1.363,0.473-3.717,0.611-5.075H0.596
		c-0.46,2.094-0.67,5.019-0.571,6.8c0.255,4.709,3.407,9.784,12.828,9.784C22.006,442.129,26.433,437.891,27.536,429.312
		 M132.256,436.94h-3.969v0.589h1.653v4.301h0.666v-4.301h1.65V436.94z"/>
	<path fill="#CB993D" d="M151.236,423.867c-0.215,0.218-0.327,0.476-0.327,0.765c0,1.592-0.012,3.274-0.044,5.001
		c-0.035,1.718-0.094,3.851-0.176,6.343c-0.082,2.531-0.131,4.201-0.146,5.013c0,0.302,0.104,0.564,0.309,0.787
		c0.21,0.215,0.465,0.326,0.767,0.326c0.302,0,0.562-0.106,0.775-0.312c0.218-0.205,0.329-0.46,0.329-0.747
		c0.015-0.805,0.066-2.479,0.146-5.014c0.084-2.596,0.141-4.679,0.173-6.374c0.032-1.7,0.047-3.388,0.047-5.023
		c0-0.292-0.106-0.549-0.322-0.765C152.339,423.439,151.671,423.437,151.236,423.867"/>
	<path fill="#CB993D" d="M173.009,429.192c-0.049-0.816-0.086-1.544-0.109-2.17c-0.025-0.629-0.04-1.237-0.04-1.823
		c0-0.295-0.109-0.553-0.324-0.768c-0.433-0.438-1.099-0.431-1.527,0c-0.22,0.215-0.327,0.473-0.327,0.768
		c0,0.594,0.013,1.207,0.037,1.851c0.022,0.644,0.064,1.386,0.124,2.231c0.057,0.844,0.091,1.458,0.109,1.854
		c0.035,0.629,0.044,2.188,0.024,4.635c-0.01,0.455-0.022,0.881-0.032,1.277l-0.532-0.545c-0.443-0.463-0.77-0.821-1-1.099
		c-0.285-0.334-0.594-0.668-0.95-1.012c-0.322-0.314-0.723-0.678-1.225-1.116c-0.505-0.438-0.809-0.695-0.943-0.794l-3.769-3.596
		c-0.119-0.109-0.371-0.369-0.745-0.768l-2.168-2.367l-0.396-0.398c-0.089-0.087-0.173-0.151-0.223-0.166
		c-0.084-0.067-0.175-0.111-0.24-0.126c-0.327-0.144-0.653-0.132-0.94,0.034c-0.426,0.23-0.663,0.611-0.686,1.108
		c0,0.193,0.047,0.398,0.144,0.631l0.104,0.24c0.049,0.334,0.116,1.371,0.201,3.081c0.074,1.309,0.069,3.17-0.027,5.535
		c-0.116,2.981-0.173,4.833-0.173,5.664c0,0.292,0.106,0.547,0.327,0.765c0.218,0.218,0.473,0.327,0.765,0.327
		c0.29,0,0.547-0.109,0.762-0.327c0.215-0.213,0.324-0.47,0.324-0.765c0-0.797,0.057-2.573,0.173-5.597
		c0.099-2.41,0.106-4.338,0.022-5.738c-0.015-0.161-0.032-0.416-0.047-0.763l-0.007-0.2l0.495,0.547
		c0.29,0.324,0.673,0.742,0.856,0.908c0.403,0.354,1.029,0.945,1.86,1.749c0.852,0.824,1.487,1.426,1.95,1.841l0.985,0.861
		c0.448,0.379,0.814,0.71,1.096,0.987c0.28,0.27,0.549,0.547,0.792,0.824c0.277,0.344,0.643,0.75,1.123,1.247l1.084,1.106
		c0.213,0.215,0.453,0.505,0.713,0.86l0.235,0.329l0.077,0.124l0.114,0.119l0.109,0.113c0.057,0.055,0.119,0.102,0.203,0.153
		l0.131,0.055c0.248,0.089,0.636,0.094,0.928-0.089c0.188-0.102,0.329-0.255,0.423-0.45l0.082-0.211l0.049-0.202
		c0.022-0.095,0.032-0.208,0.032-0.347c0.017-0.186,0.032-0.508,0.047-0.975c0.035-0.79,0.062-1.723,0.077-2.812
		c0.015-2.438,0.01-4.046-0.022-4.778C173.115,430.546,173.071,429.915,173.009,429.192"/>
	<path fill="#CB993D" d="M181.558,427.366c1.228-1.012,2.665-1.521,4.278-1.521h0.148c1.658,0.032,2.875,0.5,3.608,1.386
		c0.19,0.247,0.445,0.389,0.745,0.408c0.297,0.024,0.566-0.062,0.799-0.245c0.238-0.186,0.369-0.436,0.391-0.745
		c0.022-0.294-0.062-0.559-0.248-0.784c-1.17-1.41-2.935-2.15-5.238-2.2c-1.163-0.021-2.234,0.164-3.254,0.53
		s-1.925,0.891-2.692,1.557c-0.762,0.658-1.425,1.425-1.97,2.273c-0.554,0.854-0.982,1.77-1.272,2.725
		c-0.292,0.96-0.443,1.952-0.453,2.942c-0.01,0.987,0.136,1.965,0.431,2.91c0.292,0.945,0.792,1.836,1.479,2.649
		c0.688,0.814,1.547,1.49,2.551,2.012c1.425,0.737,3.088,1.116,4.954,1.134c0.312,0,0.608-0.018,0.886-0.052
		c0.304-0.035,0.609-0.111,0.903-0.223c0.287-0.106,0.534-0.203,0.735-0.285c0.223-0.094,0.482-0.229,0.767-0.408
		c0.302-0.188,0.512-0.319,0.633-0.405l0.641-0.466c0.423-0.316,0.522-0.371,0.566-0.396c0.245-0.186,0.394-0.423,0.443-0.71
		c0.052-0.292-0.012-0.564-0.186-0.812c-0.176-0.245-0.413-0.396-0.7-0.448c-0.292-0.055-0.559,0.005-0.821,0.178
		c-0.082,0.067-0.26,0.193-0.532,0.389c-0.282,0.198-0.46,0.327-0.54,0.384c-0.069,0.06-0.215,0.156-0.438,0.299
		c-0.218,0.139-0.374,0.235-0.473,0.282c-0.091,0.05-0.242,0.116-0.44,0.206c-0.195,0.081-0.351,0.144-0.468,0.17
		c-0.124,0.032-0.272,0.058-0.443,0.085c-0.166,0.021-0.336,0.029-0.529,0.029c-1.517-0.013-2.846-0.31-3.959-0.884
		c-0.74-0.376-1.368-0.87-1.873-1.467c-0.505-0.602-0.869-1.255-1.084-1.94c-0.225-0.697-0.336-1.444-0.336-2.217
		c0-0.755,0.122-1.534,0.359-2.313C179.435,429.77,180.321,428.416,181.558,427.366"/>
	<path fill="#CB993D" d="M208.32,423.462c-0.228-0.195-0.495-0.285-0.792-0.263c-0.302,0.022-0.552,0.146-0.75,0.371
		c-0.193,0.226-0.285,0.498-0.263,0.812c0.146,1.705,0.21,4.004,0.193,6.837c-0.015,1.482-0.062,2.794-0.146,3.9
		c-0.082,1.153-0.188,1.905-0.329,2.244c-0.235,0.621-0.609,1.186-1.111,1.673c-0.507,0.492-1.083,0.839-1.72,1.042
		c-0.433,0.141-0.953,0.197-1.542,0.158c-0.586-0.027-1.094-0.142-1.512-0.342c-0.683-0.319-1.247-1.081-1.678-2.257
		c-0.403-1.143-0.688-2.649-0.849-4.469c-0.161-1.975-0.136-4.959,0.072-8.868c0.022-0.31-0.072-0.579-0.282-0.797
		c-0.203-0.213-0.456-0.334-0.755-0.356c-0.322-0.024-0.567,0.076-0.79,0.287c-0.21,0.205-0.332,0.455-0.351,0.739
		c-0.21,3.994-0.228,7.082-0.047,9.181c0.166,2.026,0.493,3.72,0.97,5.028c0.624,1.739,1.557,2.917,2.776,3.499
		c0.661,0.305,1.443,0.485,2.321,0.537c0.158,0.007,0.312,0.015,0.462,0.015c0.695,0,1.327-0.102,1.886-0.297
		c0.928-0.305,1.782-0.819,2.531-1.524c0.752-0.71,1.312-1.531,1.67-2.45c0.206-0.568,0.356-1.512,0.453-2.893
		c0.084-1.11,0.134-2.464,0.151-4.023c0.015-2.91-0.052-5.283-0.198-7.05C208.674,423.904,208.547,423.657,208.32,423.462"/>
	<path fill="#CB993D" d="M221.083,432.019c0.416-0.485,0.73-1.039,0.931-1.658c0.24-0.686,0.319-1.36,0.23-2.007
		c-0.086-0.636-0.27-1.223-0.554-1.742c-0.277-0.505-0.651-0.987-1.113-1.433c-0.619-0.586-1.364-1.062-2.21-1.41
		c-0.839-0.347-1.69-0.537-2.544-0.571l-0.146-0.022c-0.144-0.015-0.24-0.027-0.284-0.027c-0.381-0.013-0.668,0.022-0.928,0.113
		c-1.012,0.382-1.534,1.272-1.551,2.641c-0.015,0.327,0.01,0.745,0.077,1.24c0.064,0.623,0.072,0.807,0.072,0.863
		c0.064,2.546,0.099,6.06,0.099,10.435c-0.002,0.035-0.027,0.208-0.069,0.513c-0.067,0.356-0.102,0.67-0.102,0.91
		c-0.035,0.426-0.02,0.805,0.054,1.121c0.106,0.534,0.374,0.938,0.772,1.195c0.168,0.129,0.384,0.2,0.656,0.22h0.319
		c0.183,0,0.418-0.01,0.715-0.029l0.416-0.047c0.151-0.015,0.277-0.035,0.344-0.047l0.168-0.005c1.77-0.164,3.353-0.723,4.707-1.663
		c1.75-1.225,2.593-2.796,2.507-4.672c-0.069-1.403-0.515-2.482-1.332-3.215C221.969,432.417,221.556,432.18,221.083,432.019
		 M219.955,429.675c-0.349,1.047-1.343,1.777-2.954,2.163c-0.411,0.092-0.975,0.173-1.688,0.235
		c-0.02-1.478-0.042-2.854-0.074-4.125c0-0.156-0.029-0.48-0.096-1.055c-0.05-0.389-0.064-0.708-0.05-0.957
		c0-0.406,0.067-0.564,0.106-0.609h0.035c0.032,0,0.092,0.01,0.196,0.025c0.141,0.017,0.255,0.024,0.339,0.024
		c0.572,0.018,1.168,0.15,1.771,0.4c0.604,0.25,1.124,0.584,1.544,0.99C220.021,427.644,220.306,428.599,219.955,429.675
		 M215.337,434.287c0.349-0.029,0.916-0.099,1.72-0.205c1.082-0.146,1.878-0.198,2.363-0.171c0.668,0.047,1.163,0.203,1.46,0.458
		c0.346,0.314,0.542,0.886,0.589,1.688c0.062,1.089-0.456,1.997-1.574,2.771c-1.027,0.715-2.254,1.139-3.63,1.265l-0.186,0.005
		c-0.096,0.015-0.212,0.029-0.356,0.047l-0.386,0.045V434.287z"/>
	<path fill="#CB993D" d="M241.003,437.079c-0.824-1.356-1.433-2.418-1.812-3.158c-0.27-0.534-0.646-1.391-1.15-2.612
		c-0.522-1.282-0.94-2.223-1.223-2.765c-0.015-0.052-0.102-0.267-0.25-0.655l-0.47-1.153c-0.195-0.492-0.381-0.891-0.554-1.186
		c-0.121-0.21-0.237-0.378-0.346-0.505c-0.307-0.349-0.671-0.497-1.077-0.494c-0.2,0.02-0.393,0.089-0.608,0.237l-0.077,0.076
		l-0.141,0.164l0.002,0.005l-0.933,1.702l-1.032,1.868c-0.609,1.139-1.265,2.534-1.953,4.154l-1.7,4.136
		c-0.092,0.237-0.307,0.734-0.594,1.365c-0.332,0.728-0.586,1.321-0.78,1.807c-0.2,0.497-0.376,1.007-0.522,1.507
		c-0.104,0.29-0.082,0.574,0.064,0.842v0.002c0.146,0.255,0.364,0.431,0.646,0.522c0.114,0.034,0.225,0.055,0.334,0.055
		c0.173,0,0.341-0.045,0.502-0.137c0.258-0.144,0.433-0.363,0.513-0.646c0.148-0.46,0.309-0.913,0.485-1.347
		c0.181-0.45,0.418-1.012,0.712-1.677l0.728-1.639c1.077-0.034,2.601-0.129,4.528-0.27c1.903-0.144,3.281-0.235,3.977-0.27
		l0.139-0.013l2.635,4.345c0.146,0.266,0.366,0.446,0.656,0.53c0.297,0.081,0.577,0.047,0.834-0.111
		c0.255-0.156,0.425-0.376,0.507-0.663c0.084-0.297,0.04-0.577-0.119-0.812C242.713,439.895,242.086,438.846,241.003,437.079
		 M237.237,434.877c-0.624,0.042-1.628,0.113-3.014,0.225c-1.453,0.114-2.64,0.19-3.543,0.228l0.723-1.734
		c0.646-1.552,1.274-2.878,1.861-3.939l0.94-1.767l0.666,1.613c0.277,0.564,0.653,1.418,1.155,2.62
		C236.573,433.437,236.984,434.359,237.237,434.877"/>
	<path fill="#CB993D" d="M255.736,423.888c-1.502-0.179-3.118-0.285-4.805-0.319c-0.349-0.203-0.762-0.19-1.094-0.005
		c-1.54,0.005-3.188,0.071-4.89,0.2c-0.297,0.02-0.544,0.153-0.737,0.391c-0.193,0.23-0.282,0.498-0.265,0.789
		c0.022,0.295,0.154,0.542,0.394,0.738c0.232,0.192,0.482,0.281,0.79,0.26c1.368-0.124,2.754-0.186,4.127-0.195
		c-0.007,1.736,0.049,4.1,0.173,7.034c0.168,3.981,0.248,6.656,0.248,8.181c0,0.292,0.109,0.547,0.327,0.768
		c0.218,0.213,0.475,0.324,0.765,0.324c0.287,0,0.547-0.111,0.767-0.324c0.21-0.221,0.322-0.476,0.322-0.768
		c0-1.549-0.082-4.256-0.248-8.271c-0.124-2.938-0.181-5.269-0.173-6.934c1.381,0.049,2.742,0.153,4.061,0.309
		c0.274,0.016,0.547-0.057,0.782-0.228c0.24-0.181,0.378-0.426,0.408-0.729c0.032-0.287-0.04-0.557-0.215-0.8
		C256.292,424.07,256.045,423.93,255.736,423.888"/>
	<path fill="#CB993D" d="M262.702,425.735c0.557-0.032,1.636-0.012,3.254,0.035c0.49,0.015,1.094,0.042,1.806,0.076
		c0.715,0.027,1.299,0.053,1.76,0.069c0.462,0.021,0.777,0.025,0.942,0.025c0.295,0,0.552-0.106,0.767-0.327
		c0.215-0.215,0.327-0.473,0.327-0.765c0-0.287-0.111-0.547-0.332-0.762c-0.21-0.216-0.468-0.324-0.762-0.324
		c-0.163,0-0.467-0.01-0.913-0.025c-0.45-0.015-1.022-0.042-1.717-0.076c-0.7-0.032-1.304-0.057-1.813-0.072
		c-1.886-0.054-3.044-0.076-3.598,0c-0.171,0-0.316,0.018-0.406,0.05c-0.228,0.042-0.42,0.109-0.582,0.213
		c-0.48,0.329-0.794,0.891-0.935,1.678c-0.069,0.436-0.035,1.032,0.106,1.854c0.03,0.089,0.062,0.218,0.092,0.391
		c0.03,0.153,0.044,0.255,0.049,0.342c0.05,0.26,0.079,0.455,0.097,0.597c0.097,1.073,0.136,2.415,0.119,3.974
		c-0.012,0.258-0.03,0.868-0.047,1.863c-0.018,0.975-0.022,1.729-0.022,2.254c0,0.06-0.015,0.24-0.074,0.763
		c-0.049,0.49-0.077,0.894-0.077,1.202c-0.017,1.394,0.436,2.284,1.366,2.658c0.111,0.034,0.237,0.064,0.413,0.086
		c0.077,0,0.173,0.008,0.297,0.021c0.19,0.017,0.456,0.024,0.844,0.024h0.01c0.574,0.02,1.378,0.034,2.416,0.05
		c0.475,0,1.029,0.005,1.67,0.015c0.641,0.007,1.163,0.015,1.571,0.024c0.414,0.01,0.695,0.013,0.841,0.013
		c0.302,0,0.567-0.104,0.787-0.312c0.22-0.208,0.327-0.468,0.327-0.768c0-0.297-0.102-0.557-0.31-0.771
		c-0.21-0.221-0.462-0.335-0.757-0.335c-0.144,0-0.426,0-0.841-0.007c-0.418-0.01-0.95-0.018-1.599-0.027
		c-0.651-0.01-1.205-0.013-1.663-0.013c-1.012-0.015-1.809-0.032-2.385-0.047c-0.324,0-0.582-0.01-0.767-0.022h-0.01
		c-0.02-0.081-0.044-0.247-0.027-0.562c0-0.24,0.025-0.569,0.072-0.984c0.052-0.532,0.072-0.844,0.072-1.008
		c0-0.505,0.01-1.244,0.027-2.207c0.01-0.571,0.022-1.165,0.035-1.509c0.242,0.02,0.539,0.049,0.891,0.086l2.046,0.223
		c1.774,0.163,3.256,0.06,4.39-0.309c0.272-0.082,0.483-0.261,0.624-0.525c0.151-0.27,0.176-0.549,0.079-0.836
		c-0.091-0.277-0.272-0.487-0.534-0.629c-0.272-0.148-0.557-0.171-0.844-0.071c-0.841,0.272-2.012,0.334-3.521,0.186
		c-0.151,0-0.829-0.072-2.019-0.218c-0.406-0.042-0.772-0.077-1.101-0.104c-0.02-0.863-0.057-1.657-0.119-2.37
		c-0.022-0.218-0.062-0.48-0.124-0.74c0-0.054-0.005-0.155-0.067-0.42c-0.04-0.176-0.069-0.305-0.082-0.382
		c-0.116-0.655-0.106-0.938-0.072-1.086L262.702,425.735z"/>
	<path fill="#CB993D" d="M288.347,423.462c-0.228-0.195-0.498-0.285-0.792-0.263c-0.302,0.022-0.552,0.146-0.75,0.371
		c-0.193,0.226-0.285,0.498-0.262,0.812c0.144,1.7,0.21,4.002,0.198,6.837c-0.02,1.485-0.067,2.797-0.151,3.9
		c-0.079,1.15-0.188,1.902-0.329,2.244c-0.23,0.616-0.606,1.186-1.111,1.673c-0.515,0.497-1.079,0.839-1.72,1.042
		c-0.433,0.141-0.955,0.197-1.542,0.158c-0.586-0.027-1.094-0.142-1.512-0.342c-0.683-0.319-1.247-1.081-1.678-2.257
		c-0.403-1.15-0.69-2.652-0.849-4.469c-0.161-1.975-0.136-4.959,0.072-8.868c0.022-0.31-0.072-0.579-0.282-0.797
		c-0.203-0.213-0.456-0.334-0.755-0.356c-0.304-0.027-0.564,0.076-0.784,0.287c-0.215,0.205-0.336,0.453-0.356,0.739
		c-0.213,3.984-0.228,7.075-0.047,9.181c0.166,2.026,0.492,3.72,0.97,5.028c0.624,1.739,1.557,2.917,2.776,3.499
		c0.658,0.305,1.443,0.485,2.321,0.537c0.158,0.007,0.312,0.015,0.465,0.015c0.693,0,1.329-0.102,1.883-0.297
		c0.931-0.305,1.784-0.819,2.531-1.524c0.752-0.71,1.312-1.531,1.67-2.45c0.206-0.568,0.356-1.512,0.453-2.893
		c0.084-1.11,0.133-2.464,0.148-4.023c0.017-2.91-0.05-5.283-0.196-7.05C288.701,423.904,288.575,423.657,288.347,423.462"/>
	<path fill="#CB993D" d="M300.839,437.475c-1.092-1.818-1.826-3.028-2.154-3.549c0.746-0.378,1.41-0.865,1.984-1.462
		c0.631-0.656,1.121-1.391,1.463-2.188c0.682-1.636,0.637-3.143-0.139-4.481c-0.836-1.47-2.371-2.304-4.558-2.475
		c-0.812-0.066-1.329-0.091-1.574-0.074c-1.059,0.037-1.792,0.354-2.168,0.931c-0.121,0.158-0.186,0.326-0.19,0.492l-0.024,0.2
		c-0.018,0.124-0.027,0.29-0.027,0.488c-0.015,0.312-0.035,0.749-0.05,1.316v0.86c0,0.34-0.005,0.609-0.012,0.824
		c-0.007,0.203-0.012,0.342-0.012,0.403c0,0.102-0.01,0.448-0.074,1.5c-0.044,0.787-0.077,1.47-0.092,2.062
		c-0.361,0.113-0.606,0.373-0.71,0.757c-0.082,0.294-0.047,0.571,0.109,0.829c0.126,0.21,0.299,0.363,0.515,0.458
		c-0.015,0.321-0.027,0.7-0.044,1.128c-0.062,1.653-0.087,3.017-0.072,4.041c0,0.591,0.015,1.086,0.049,1.467
		c0.037,0.545,0.119,0.929,0.252,1.179c0.171,0.304,0.443,0.552,0.829,0.739l0.186,0.069l0.049,0.022l0.057,0.044
		c0.262,0.142,0.539,0.184,0.821,0.119c0.294-0.06,0.522-0.225,0.676-0.485c0.156-0.252,0.203-0.529,0.138-0.816
		c-0.059-0.289-0.215-0.517-0.487-0.7c-0.079-0.037-0.19-0.089-0.336-0.148l-0.007-0.186c-0.03-0.326-0.047-0.762-0.047-1.334
		c-0.015-0.984,0.01-2.306,0.074-3.929c0-0.285,0.005-0.577,0.015-0.876c0.44,0.021,0.846-0.025,1.25-0.082
		c0.25,0.358,0.49,0.725,0.718,1.096l1.723,2.905c1.172,1.945,2.291,3.457,3.34,4.504c0.225,0.203,0.482,0.307,0.768,0.307
		c0.291,0,0.547-0.111,0.764-0.326c0.215-0.216,0.328-0.473,0.328-0.765c0-0.285-0.105-0.545-0.314-0.779
		C302.935,440.659,301.921,439.283,300.839,437.475 M300.109,429.438c-0.375,0.889-1.012,1.646-1.896,2.247
		c-0.816,0.557-1.769,0.841-2.823,0.841h-0.015c0.029-0.618,0.064-1.323,0.108-2.115c0.035-0.604,0.074-1.371,0.074-1.596
		c0-0.05,0.005-0.179,0.013-0.389c0.007-0.216,0.012-0.495,0.012-0.842v-0.878c0.015-0.54,0.035-0.958,0.052-1.263v-0.002
		c0.082-0.01,0.175-0.013,0.284-0.013l0.02-0.005c0.195-0.013,0.636,0.01,1.316,0.074c1.436,0.111,2.402,0.576,2.865,1.386
		C300.535,427.611,300.529,428.447,300.109,429.438"/>
	<path fill="#CB993D" d="M327.462,426.929c-0.35-0.352-1.004-0.772-2-1.297c-0.975-0.51-1.982-0.96-3.002-1.336
		c-1.227-0.451-2.279-0.728-3.133-0.829c-1.373-0.137-2.301,0.223-2.746,1.066c-0.107,0.168-0.166,0.4-0.186,0.715
		c-0.016,0.168-0.025,0.396-0.025,0.676c-0.016,0.413-0.016,0.989,0,1.717c0.018,0.327,0.033,0.706,0.039,1.136
		c0.006,0.44,0.016,0.8,0.025,1.084l0.006,0.216c0.004,0.168,0.006,0.289,0.006,0.358c0,1.277-0.066,3.21-0.199,5.743
		c-0.146,2.851-0.219,4.825-0.219,5.865c0,0.292,0.109,0.549,0.326,0.765c0.211,0.215,0.473,0.326,0.76,0.326
		c0.328,0,0.605-0.119,0.803-0.349c3.826-0.097,6.793-1.111,8.826-3.012c1.072-1.02,1.881-2.326,2.396-3.878
		c0.52-1.556,0.643-3.172,0.377-4.808C329.248,429.44,328.558,428.042,327.462,426.929 M318.615,429.838
		c-0.01-0.294-0.02-0.655-0.023-1.093c-0.012-0.434-0.023-0.827-0.037-1.166c-0.018-0.683-0.018-1.225,0-1.621
		c0-0.118,0.002-0.228,0.006-0.321c0.119-0.015,0.293-0.015,0.553,0.008c0.648,0.063,1.521,0.299,2.596,0.7
		c0.926,0.349,1.846,0.762,2.729,1.222c0.99,0.51,1.342,0.775,1.471,0.918c0.783,0.765,1.277,1.772,1.475,2.997
		c0.195,1.237,0.104,2.484-0.275,3.704c-0.398,1.186-1.021,2.186-1.857,2.975c-1.582,1.475-3.939,2.296-7.01,2.438
		c0.016-0.963,0.07-2.373,0.166-4.296c0.148-3.034,0.219-5.006,0.219-5.867C318.625,430.336,318.623,430.141,318.615,429.838"/>
	<path fill="#CB993D" d="M335.644,425.735c0.563-0.034,1.637-0.012,3.258,0.035c0.486,0.015,1.094,0.042,1.803,0.076
		c0.715,0.027,1.303,0.053,1.76,0.069c0.465,0.021,0.777,0.025,0.943,0.025c0.293,0,0.551-0.106,0.766-0.327
		c0.217-0.213,0.322-0.473,0.322-0.765c0-0.289-0.105-0.547-0.324-0.762c-0.213-0.216-0.471-0.324-0.764-0.324
		c-0.162,0-0.467-0.01-0.914-0.025c-0.449-0.015-1.021-0.042-1.717-0.076c-0.701-0.032-1.305-0.057-1.814-0.072
		c-1.885-0.054-3.041-0.076-3.598,0c-0.17,0-0.316,0.018-0.402,0.05c-0.229,0.04-0.422,0.109-0.584,0.213
		c-0.48,0.329-0.793,0.891-0.936,1.678c-0.07,0.44-0.035,1.037,0.107,1.854c0.027,0.089,0.061,0.218,0.088,0.391
		c0.031,0.153,0.049,0.255,0.051,0.342c0.051,0.26,0.08,0.455,0.1,0.597c0.094,1.073,0.137,2.415,0.117,3.974
		c-0.016,0.263-0.031,0.884-0.047,1.863c-0.018,0.975-0.023,1.729-0.023,2.254c0,0.06-0.012,0.24-0.074,0.763
		c-0.049,0.49-0.074,0.894-0.074,1.202c-0.02,1.394,0.434,2.284,1.363,2.658c0.111,0.034,0.238,0.064,0.416,0.086
		c0.074,0,0.17,0.008,0.295,0.021c0.189,0.017,0.455,0.024,0.844,0.024h0.01c0.574,0.02,1.379,0.034,2.414,0.05
		c0.477,0,1.029,0.005,1.668,0.015c0.645,0.007,1.166,0.015,1.574,0.024c0.414,0.01,0.695,0.013,0.842,0.013
		c0.305,0,0.566-0.104,0.789-0.312c0.219-0.208,0.324-0.468,0.324-0.768c0-0.297-0.102-0.557-0.307-0.771
		c-0.213-0.221-0.465-0.335-0.76-0.335c-0.145,0-0.426,0-0.842-0.007c-0.418-0.01-0.949-0.018-1.598-0.027
		c-0.65-0.01-1.205-0.013-1.66-0.013c-1.016-0.015-1.813-0.032-2.389-0.047c-0.314,0-0.568-0.007-0.777-0.022
		c-0.02-0.081-0.045-0.247-0.027-0.562c0-0.24,0.025-0.569,0.072-0.984c0.053-0.532,0.074-0.844,0.074-1.008
		c0-0.505,0.008-1.244,0.025-2.207c0.01-0.571,0.021-1.165,0.033-1.509c0.246,0.02,0.543,0.049,0.893,0.086l2.045,0.223
		c1.779,0.163,3.26,0.06,4.391-0.309c0.271-0.082,0.484-0.261,0.623-0.525c0.15-0.27,0.176-0.549,0.082-0.836
		c-0.094-0.277-0.271-0.487-0.537-0.629c-0.27-0.148-0.557-0.171-0.842-0.071c-0.84,0.272-2.016,0.334-3.521,0.186
		c-0.152,0-0.83-0.072-2.023-0.218c-0.402-0.042-0.77-0.077-1.098-0.104c-0.021-0.873-0.063-1.667-0.123-2.368
		c-0.014-0.21-0.059-0.475-0.121-0.742c0-0.054-0.004-0.155-0.066-0.42c-0.039-0.176-0.068-0.305-0.082-0.382
		c-0.115-0.655-0.105-0.938-0.07-1.086L335.644,425.735z"/>
	<path fill="#CB993D" d="M363.894,440.068c-0.135,0-0.607-0.003-1.428-0.016c-0.828-0.007-1.482-0.027-2.006-0.059
		c-0.762-0.035-1.359-0.097-1.789-0.193c-0.094-0.018-0.18-0.035-0.254-0.05v-0.034c-0.018-0.238-0.018-0.587,0-1.024
		c0.014-0.218,0.027-0.473,0.035-0.765l0.023-0.735c0.01-0.205,0.014-0.344,0.014-0.41c0-0.1,0.02-1.45,0.055-4.059l0.043-3.517
		c0-0.299-0.002-0.784-0.012-1.467c-0.008-0.676,0-1.235,0.012-1.676c0.016-0.428,0.064-0.855,0.143-1.264
		c0.063-0.292,0.01-0.564-0.154-0.814c-0.166-0.248-0.396-0.403-0.686-0.465c-0.291-0.063-0.564-0.011-0.814,0.158
		c-0.246,0.163-0.406,0.396-0.465,0.688c-0.1,0.49-0.166,1.015-0.201,1.552c-0.033,0.52-0.041,1.141-0.023,1.902
		c0.014,0.726,0.021,1.188,0.021,1.381l-0.047,3.512c-0.035,2.615-0.049,3.969-0.049,4.068c0,0.059-0.006,0.19-0.016,0.383
		l-0.023,0.716c-0.008,0.276-0.021,0.517-0.035,0.734c-0.018,0.497-0.018,0.894,0,1.163c0,0.21,0.008,0.381,0.027,0.527
		c0.037,0.267,0.104,0.473,0.195,0.613c0.17,0.324,0.463,0.584,0.875,0.768c0.248,0.108,0.555,0.195,0.906,0.262
		c0.518,0.1,1.223,0.176,2.096,0.226c0.547,0.034,1.221,0.05,2.047,0.05h0.002c0.807,0.015,1.27,0.024,1.387,0.024l0.086,0.002
		c0.275,0,0.52-0.096,0.723-0.287c0.215-0.205,0.332-0.46,0.352-0.754c0.02-0.297-0.08-0.574-0.283-0.787
		C364.445,440.206,364.193,440.088,363.894,440.068"/>
	<path fill="#CB993D" d="M370.935,425.735c0.563-0.034,1.637-0.012,3.258,0.035c0.486,0.015,1.094,0.042,1.805,0.076
		c0.713,0.027,1.301,0.053,1.758,0.069c0.465,0.021,0.779,0.025,0.943,0.025c0.293,0,0.551-0.106,0.766-0.327
		c0.217-0.213,0.324-0.473,0.324-0.765c0-0.289-0.107-0.547-0.326-0.762c-0.213-0.216-0.471-0.324-0.764-0.324
		c-0.162,0-0.465-0.01-0.914-0.025c-0.449-0.015-1.02-0.042-1.717-0.076c-0.701-0.032-1.305-0.057-1.814-0.072
		c-1.885-0.054-3.041-0.076-3.598,0c-0.17,0-0.316,0.018-0.402,0.05c-0.227,0.04-0.422,0.109-0.584,0.213
		c-0.479,0.329-0.793,0.891-0.936,1.678c-0.07,0.44-0.035,1.037,0.109,1.854c0.025,0.089,0.059,0.218,0.09,0.391
		c0.027,0.153,0.045,0.255,0.047,0.342c0.051,0.26,0.08,0.455,0.1,0.597c0.094,1.073,0.137,2.415,0.117,3.974
		c-0.016,0.263-0.031,0.884-0.047,1.863c-0.018,0.975-0.023,1.729-0.023,2.254c0,0.06-0.012,0.24-0.074,0.763
		c-0.049,0.49-0.074,0.894-0.074,1.202c-0.02,1.394,0.434,2.284,1.367,2.658c0.107,0.034,0.236,0.064,0.41,0.086
		c0.076,0,0.176,0.008,0.299,0.021c0.188,0.017,0.453,0.024,0.842,0.024h0.01c0.574,0.02,1.379,0.034,2.42,0.05
		c0.471,0,1.025,0.005,1.662,0.015c0.645,0.007,1.166,0.015,1.576,0.024c0.412,0.01,0.693,0.013,0.84,0.013
		c0.305,0,0.566-0.104,0.789-0.312c0.219-0.208,0.326-0.468,0.326-0.768c0-0.297-0.102-0.557-0.309-0.771
		c-0.211-0.221-0.465-0.335-0.76-0.335c-0.143,0-0.426,0-0.844-0.007c-0.414-0.01-0.951-0.018-1.596-0.027
		c-0.65-0.01-1.205-0.013-1.66-0.013c-1.016-0.015-1.813-0.032-2.389-0.047c-0.314,0-0.568-0.007-0.773-0.022
		c-0.021-0.081-0.049-0.247-0.031-0.562c0-0.24,0.025-0.569,0.072-0.984c0.053-0.532,0.074-0.844,0.074-1.008
		c0-0.505,0.008-1.244,0.025-2.207c0.01-0.571,0.021-1.165,0.033-1.509c0.246,0.02,0.543,0.049,0.893,0.086l2.045,0.223
		c1.779,0.163,3.26,0.06,4.391-0.309c0.271-0.082,0.482-0.261,0.625-0.525c0.148-0.27,0.174-0.549,0.08-0.836
		c-0.092-0.277-0.271-0.487-0.537-0.629c-0.271-0.148-0.557-0.171-0.842-0.071c-0.84,0.272-2.016,0.334-3.521,0.186
		c-0.152,0-0.83-0.072-2.023-0.218c-0.4-0.042-0.77-0.077-1.098-0.104c-0.021-0.873-0.063-1.667-0.123-2.368
		c-0.014-0.22-0.059-0.484-0.117-0.742c0-0.054-0.008-0.155-0.068-0.42c-0.041-0.176-0.07-0.305-0.08-0.382
		c-0.119-0.655-0.109-0.938-0.074-1.086L370.935,425.735z"/>
	<path fill="#CB993D" d="M397.142,437.079c-0.822-1.356-1.432-2.418-1.811-3.158c-0.27-0.534-0.646-1.391-1.148-2.612
		c-0.523-1.282-0.941-2.223-1.225-2.765c-0.016-0.052-0.096-0.267-0.25-0.655l-0.465-1.153c-0.201-0.492-0.383-0.891-0.555-1.186
		c-0.123-0.21-0.242-0.378-0.35-0.505c-0.309-0.349-0.658-0.497-1.078-0.494c-0.201,0.02-0.393,0.089-0.609,0.237l-0.076,0.076
		l-0.139,0.159l0.002,0.002l-0.934,1.71l-1.033,1.868c-0.607,1.139-1.264,2.534-1.951,4.154l-1.701,4.136
		c-0.092,0.237-0.307,0.734-0.594,1.365c-0.316,0.7-0.582,1.305-0.779,1.807c-0.201,0.497-0.373,1.007-0.521,1.507
		c-0.104,0.29-0.082,0.574,0.064,0.842l0.002,0.002c0.143,0.255,0.361,0.431,0.643,0.522c0.115,0.034,0.227,0.055,0.334,0.055
		c0.174,0,0.342-0.045,0.504-0.137c0.262-0.144,0.432-0.363,0.512-0.646c0.148-0.463,0.313-0.916,0.486-1.347
		c0.182-0.45,0.416-1.012,0.711-1.677l0.641-1.431l0.088-0.208c1.078-0.034,2.602-0.129,4.525-0.27
		c1.904-0.144,3.283-0.235,3.979-0.27l0.139-0.013l2.639,4.34c0.143,0.271,0.359,0.451,0.652,0.535
		c0.303,0.081,0.576,0.044,0.834-0.111c0.258-0.156,0.428-0.376,0.508-0.663c0.084-0.297,0.039-0.577-0.119-0.812
		C398.853,439.895,398.226,438.846,397.142,437.079 M393.376,434.877c-0.623,0.042-1.627,0.113-3.014,0.225
		c-1.453,0.114-2.641,0.19-3.543,0.228l0.723-1.734c0.645-1.549,1.271-2.873,1.859-3.939l0.941-1.767l0.666,1.613
		c0.277,0.564,0.652,1.418,1.152,2.62C392.714,433.437,393.125,434.359,393.376,434.877"/>
	<path fill="#CB993D" d="M414.912,426.929c-0.348-0.352-1.002-0.772-1.996-1.297c-0.979-0.51-1.984-0.96-3.004-1.336
		c-1.225-0.451-2.277-0.728-3.131-0.829c-1.375-0.139-2.307,0.223-2.748,1.068c-0.107,0.166-0.166,0.403-0.186,0.713
		c-0.014,0.168-0.023,0.396-0.023,0.676c-0.018,0.413-0.018,0.989,0,1.717c0.016,0.327,0.027,0.706,0.037,1.139
		c0.008,0.438,0.016,0.797,0.025,1.081c0.004,0.285,0.012,0.478,0.012,0.574c0,1.289-0.066,3.222-0.195,5.743
		c-0.15,2.868-0.223,4.841-0.223,5.865c0,0.292,0.107,0.549,0.326,0.765c0.217,0.215,0.473,0.326,0.764,0.326
		c0.324,0,0.6-0.119,0.801-0.349c3.822-0.097,6.791-1.111,8.824-3.012c1.072-1.02,1.879-2.326,2.398-3.878
		c0.516-1.556,0.641-3.172,0.375-4.808C416.705,429.442,416.013,428.042,414.912,426.929 M406.068,429.838
		c-0.01-0.294-0.02-0.66-0.023-1.093c-0.01-0.434-0.023-0.827-0.041-1.166c-0.014-0.683-0.014-1.225,0-1.621
		c0-0.118,0.006-0.228,0.01-0.321c0.123-0.015,0.293-0.015,0.553,0.008c0.648,0.063,1.521,0.302,2.596,0.7
		c0.926,0.349,1.846,0.762,2.732,1.222c0.984,0.51,1.338,0.775,1.469,0.918c0.783,0.765,1.275,1.772,1.473,2.997
		c0.195,1.237,0.104,2.484-0.277,3.704c-0.393,1.186-1.02,2.186-1.854,2.975c-1.584,1.475-3.941,2.296-7.012,2.438
		c0.018-0.982,0.072-2.393,0.166-4.296c0.145-3.023,0.219-4.998,0.219-5.867C406.076,430.336,406.076,430.141,406.068,429.838"/>
	<path fill="#CB993D" d="M423.095,425.735c0.566-0.032,1.646-0.012,3.254,0.035c0.492,0.015,1.094,0.042,1.807,0.076
		c0.715,0.027,1.301,0.053,1.76,0.069c0.463,0.021,0.779,0.025,0.941,0.025c0.295,0,0.551-0.106,0.768-0.327
		c0.215-0.213,0.322-0.468,0.322-0.765c0-0.289-0.107-0.547-0.322-0.762c-0.217-0.216-0.477-0.324-0.768-0.324
		c-0.162,0-0.461-0.01-0.912-0.025c-0.447-0.015-1.021-0.042-1.721-0.076c-0.697-0.032-1.301-0.057-1.811-0.072
		c-1.875-0.054-3.035-0.076-3.598,0c-0.168,0-0.314,0.018-0.406,0.05c-0.225,0.04-0.418,0.109-0.582,0.213
		c-0.477,0.329-0.789,0.891-0.934,1.678c-0.07,0.433-0.035,1.029,0.105,1.858c0.031,0.087,0.063,0.218,0.092,0.386
		c0.029,0.153,0.045,0.255,0.049,0.342c0.051,0.257,0.082,0.455,0.098,0.597c0.096,1.068,0.139,2.41,0.121,3.974
		c-0.016,0.263-0.033,0.884-0.051,1.863c-0.016,0.975-0.021,1.729-0.021,2.254c0,0.124-0.059,0.602-0.074,0.763
		c-0.049,0.51-0.076,0.903-0.076,1.202c-0.016,1.394,0.438,2.284,1.365,2.658c0.111,0.034,0.238,0.064,0.414,0.086
		c0.076,0,0.172,0.008,0.297,0.021c0.189,0.017,0.451,0.024,0.844,0.024h0.01c0.574,0.02,1.377,0.034,2.414,0.05
		c0.477,0,1.029,0.005,1.67,0.015c0.637,0.007,1.164,0.015,1.572,0.024c0.416,0.01,0.695,0.013,0.842,0.013
		c0.305,0,0.566-0.104,0.789-0.312c0.217-0.208,0.328-0.468,0.328-0.768s-0.107-0.56-0.311-0.771
		c-0.211-0.221-0.463-0.335-0.758-0.335c-0.146,0-0.428,0-0.844-0.007c-0.418-0.01-0.951-0.018-1.598-0.027
		c-0.652-0.01-1.205-0.013-1.664-0.013c-1.014-0.015-1.809-0.032-2.387-0.047c-0.313,0-0.564-0.007-0.775-0.022
		c-0.02-0.086-0.041-0.247-0.027-0.562c0-0.225,0.023-0.537,0.072-0.984c0.051-0.518,0.072-0.837,0.072-1.008
		c0-0.505,0.01-1.244,0.027-2.207c0.012-0.713,0.023-1.218,0.033-1.509c0.242,0.02,0.543,0.049,0.891,0.086l0.988,0.104
		c0.594,0.063,0.943,0.106,1.059,0.118c1.779,0.169,3.26,0.06,4.391-0.309c0.271-0.082,0.484-0.261,0.627-0.525
		c0.146-0.271,0.172-0.554,0.078-0.834c-0.092-0.279-0.275-0.489-0.537-0.631c-0.27-0.148-0.557-0.171-0.844-0.071
		c-0.84,0.272-2.014,0.334-3.521,0.186c-0.15,0-0.826-0.072-2.02-0.218c-0.406-0.042-0.771-0.077-1.102-0.104
		c-0.018-0.865-0.057-1.662-0.121-2.368c-0.018-0.21-0.057-0.467-0.121-0.742c0-0.081-0.021-0.213-0.066-0.42l-0.084-0.382
		c-0.113-0.653-0.104-0.938-0.07-1.091L423.095,425.735z"/>
	<path fill="#CB993D" d="M443.894,437.475c-1.123-1.873-1.832-3.046-2.148-3.549c0.742-0.378,1.408-0.865,1.982-1.462
		c0.629-0.656,1.123-1.391,1.463-2.188c0.678-1.636,0.633-3.143-0.139-4.481c-0.838-1.47-2.371-2.304-4.559-2.475
		c-0.813-0.066-1.328-0.091-1.576-0.074c-1.057,0.037-1.787,0.354-2.168,0.931c-0.119,0.158-0.184,0.326-0.189,0.492l-0.025,0.2
		c-0.016,0.124-0.025,0.29-0.025,0.488c-0.014,0.313-0.035,0.749-0.051,1.316v0.86c0,0.34-0.004,0.609-0.01,0.813
		c-0.008,0.212-0.016,0.354-0.016,0.415c0,0.102-0.01,0.448-0.072,1.5c-0.045,0.787-0.076,1.47-0.092,2.062
		c-0.361,0.113-0.605,0.373-0.709,0.757c-0.084,0.294-0.047,0.571,0.105,0.829c0.129,0.21,0.303,0.363,0.518,0.458
		c-0.016,0.321-0.029,0.7-0.045,1.128c-0.061,1.675-0.088,3.036-0.072,4.041c0,0.604,0.016,1.086,0.051,1.467
		c0.035,0.545,0.119,0.929,0.25,1.179c0.17,0.304,0.445,0.552,0.834,0.739l0.289,0.136c0.264,0.142,0.535,0.184,0.824,0.119
		c0.289-0.06,0.52-0.225,0.67-0.485c0.158-0.252,0.203-0.529,0.145-0.816c-0.064-0.289-0.219-0.517-0.494-0.7
		c-0.08-0.037-0.188-0.089-0.33-0.148l-0.01-0.186c-0.033-0.334-0.047-0.782-0.047-1.334c-0.018-0.967,0.01-2.288,0.07-3.929
		c0-0.285,0.008-0.577,0.018-0.876h0.039c0.414,0,0.82-0.025,1.211-0.082c0.244,0.356,0.49,0.723,0.717,1.096l1.725,2.905
		c1.168,1.945,2.293,3.46,3.336,4.504c0.229,0.203,0.486,0.307,0.77,0.307c0.291,0,0.547-0.111,0.764-0.326
		c0.215-0.216,0.326-0.473,0.326-0.765c0-0.285-0.102-0.545-0.314-0.779C445.992,440.659,444.978,439.283,443.894,437.475
		 M443.169,429.438c-0.377,0.889-1.016,1.646-1.898,2.247c-0.82,0.557-1.77,0.841-2.824,0.841h-0.018
		c0.033-0.618,0.068-1.323,0.111-2.115c0.035-0.609,0.072-1.381,0.072-1.596c0-0.05,0.008-0.179,0.018-0.389
		c0.004-0.216,0.01-0.495,0.01-0.842v-0.878c0.016-0.54,0.035-0.958,0.049-1.263v-0.002c0.082-0.01,0.18-0.013,0.285-0.013
		l0.02-0.005c0.193-0.013,0.639,0.01,1.318,0.074c1.439,0.111,2.404,0.576,2.867,1.386
		C443.589,427.611,443.587,428.447,443.169,429.438"/>
	<path fill="#CB993D" d="M460.287,432.711c-0.645-0.475-1.67-0.925-3.043-1.336l-1.057-0.321c-0.213-0.063-0.494-0.161-0.852-0.292
		c-0.344-0.127-0.596-0.24-0.74-0.334c-0.16-0.102-0.344-0.235-0.551-0.394c-0.184-0.144-0.32-0.302-0.402-0.473
		c-0.09-0.193-0.17-0.406-0.227-0.621c-0.104-0.518-0.07-1.04,0.102-1.555c0.178-0.515,0.465-0.957,0.857-1.301
		c0.396-0.352,0.811-0.56,1.266-0.639c0.447-0.069,0.912,0.02,1.391,0.265c0.195,0.124,0.383,0.284,0.568,0.48
		c0.189,0.202,0.34,0.383,0.451,0.529c0.109,0.155,0.299,0.428,0.559,0.819c0.166,0.247,0.396,0.4,0.684,0.465
		c0.295,0.064,0.566,0.01,0.814-0.158c0.246-0.166,0.404-0.394,0.465-0.681c0.063-0.282,0.012-0.55-0.139-0.789
		c-0.021-0.055-0.074-0.142-0.176-0.3c-0.111-0.168-0.18-0.27-0.197-0.289l-0.186-0.275c-0.111-0.163-0.193-0.274-0.264-0.341
		c-0.051-0.055-0.123-0.139-0.215-0.248c-0.109-0.144-0.207-0.247-0.289-0.304l-0.283-0.285c-0.117-0.102-0.236-0.192-0.35-0.277
		c-0.117-0.079-0.244-0.15-0.385-0.22c-0.973-0.497-1.918-0.684-2.791-0.537c-0.879,0.136-1.68,0.527-2.383,1.16
		c-0.664,0.6-1.158,1.347-1.465,2.223c-0.307,0.881-0.361,1.786-0.156,2.689c0.104,0.518,0.303,0.997,0.586,1.423
		c0.283,0.421,0.574,0.76,0.869,1.007c0.295,0.253,0.682,0.49,1.184,0.721c0.496,0.232,0.871,0.389,1.141,0.478
		c0.271,0.092,0.654,0.21,1.176,0.366c0.111,0.02,0.27,0.052,0.371,0.092c1.133,0.336,1.928,0.673,2.359,0.994
		c0.539,0.403,0.814,0.978,0.844,1.747c0.047,1.203-0.232,2.185-0.824,2.923c-0.59,0.739-1.326,1.183-2.18,1.318
		c-0.865,0.137-1.674-0.049-2.469-0.579c-0.783-0.524-1.35-1.397-1.678-2.603c-0.08-0.282-0.25-0.508-0.51-0.666
		c-0.26-0.151-0.539-0.186-0.832-0.106c-0.279,0.079-0.502,0.25-0.66,0.51c-0.156,0.26-0.191,0.539-0.111,0.829
		c0.492,1.737,1.365,3.036,2.605,3.867c0.975,0.644,2.014,0.968,3.107,0.968c0.293,0,0.59-0.022,0.891-0.071
		c1.414-0.24,2.604-0.943,3.535-2.097c0.932-1.157,1.373-2.623,1.305-4.359C461.955,434.674,461.373,433.522,460.287,432.711"/>
	<path fill="#CB993D" d="M478.052,427.366c1.264-1.044,2.736-1.557,4.424-1.521c1.66,0.032,2.875,0.5,3.609,1.381
		c0.184,0.252,0.443,0.394,0.746,0.413c0.301,0.024,0.563-0.062,0.793-0.245c0.242-0.186,0.377-0.436,0.398-0.745
		c0.018-0.294-0.064-0.557-0.252-0.784c-1.168-1.41-2.932-2.15-5.236-2.2c-1.154-0.021-2.232,0.164-3.256,0.53
		c-1.018,0.366-1.926,0.891-2.691,1.557c-0.76,0.658-1.424,1.425-1.971,2.273c-0.553,0.854-0.98,1.77-1.271,2.725
		c-0.287,0.96-0.441,1.952-0.451,2.942c-0.01,0.989,0.135,1.97,0.428,2.91c0.295,0.945,0.793,1.836,1.482,2.649
		c0.689,0.817,1.547,1.492,2.553,2.012c1.42,0.737,3.088,1.116,4.953,1.134c0.313,0,0.611-0.018,0.885-0.052
		c0.305-0.035,0.609-0.111,0.902-0.223c0.289-0.106,0.533-0.203,0.736-0.285c0.223-0.094,0.482-0.229,0.768-0.408
		c0.303-0.188,0.51-0.319,0.631-0.405l0.639-0.466c0.426-0.316,0.523-0.371,0.568-0.396c0.246-0.186,0.396-0.423,0.443-0.71
		c0.053-0.292-0.012-0.564-0.184-0.812c-0.178-0.245-0.412-0.396-0.699-0.448c-0.293-0.055-0.563,0.005-0.822,0.178
		c-0.082,0.067-0.26,0.193-0.535,0.389c-0.279,0.198-0.459,0.327-0.535,0.384c-0.07,0.06-0.217,0.156-0.441,0.299
		c-0.215,0.139-0.371,0.235-0.467,0.282c-0.098,0.05-0.246,0.116-0.445,0.206c-0.197,0.086-0.352,0.144-0.469,0.17
		c-0.123,0.032-0.27,0.058-0.445,0.085c-0.16,0.021-0.334,0.029-0.529,0.029c-1.512-0.013-2.84-0.31-3.955-0.884
		c-0.742-0.376-1.367-0.87-1.873-1.467c-0.504-0.602-0.871-1.255-1.086-1.94c-0.223-0.697-0.336-1.444-0.336-2.217
		c0-0.755,0.119-1.534,0.361-2.313C475.929,429.771,476.812,428.418,478.052,427.366"/>
	<path fill="#CB993D" d="M494.166,423.865c-0.432-0.429-1.1-0.429-1.527,0c-0.221,0.218-0.326,0.475-0.326,0.767
		c0,1.648-0.018,3.331-0.049,4.999c-0.035,1.717-0.096,3.853-0.174,6.342c-0.082,2.536-0.129,4.201-0.148,5.014
		c0,0.304,0.104,0.566,0.309,0.786c0.211,0.216,0.469,0.327,0.768,0.327c0.303,0,0.563-0.104,0.777-0.312
		c0.215-0.206,0.328-0.461,0.328-0.748c0.018-0.804,0.064-2.474,0.145-5.013c0.086-2.594,0.143-4.68,0.176-6.375
		c0.029-1.646,0.047-3.33,0.047-5.021C494.49,424.34,494.38,424.083,494.166,423.865"/>
	<path fill="#CB993D" d="M507.152,423.888c-1.502-0.179-3.121-0.285-4.807-0.319c-0.348-0.203-0.764-0.19-1.088-0.005
		c-1.545,0.005-3.189,0.071-4.895,0.2c-0.295,0.02-0.545,0.153-0.742,0.391c-0.193,0.232-0.279,0.5-0.26,0.789
		c0.021,0.29,0.15,0.542,0.391,0.74c0.232,0.19,0.49,0.279,0.795,0.258c1.365-0.124,2.75-0.186,4.125-0.195
		c-0.008,1.736,0.049,4.1,0.172,7.034c0.168,3.972,0.248,6.646,0.248,8.181c0,0.295,0.107,0.552,0.326,0.768
		c0.217,0.213,0.473,0.324,0.766,0.324c0.287,0,0.543-0.111,0.762-0.324c0.215-0.221,0.326-0.476,0.326-0.768
		c0-1.554-0.084-4.34-0.246-8.271c-0.125-2.938-0.182-5.269-0.174-6.934c1.381,0.049,2.744,0.153,4.061,0.309
		c0.277,0.022,0.547-0.057,0.773-0.228c0.246-0.178,0.385-0.423,0.416-0.729c0.029-0.295-0.041-0.564-0.215-0.8
		C507.712,424.07,507.466,423.93,507.152,423.888"/>
	<path fill="#CB993D" d="M526.976,425.149c-2.043-1.826-4.789-2.534-8.18-2.096c-0.35,0.054-0.619,0.234-0.787,0.521
		c-0.5,0.151-1.023,0.35-1.561,0.599c-1.15,0.521-2.145,1.208-2.938,2.047c-0.795,0.836-1.395,1.752-1.779,2.717
		c-0.383,0.955-0.604,1.984-0.645,3.063c-0.041,1.071,0.074,2.121,0.352,3.118c0.275,1.002,0.723,1.965,1.334,2.873
		c0.613,0.902,1.35,1.688,2.189,2.341c0.848,0.653,1.871,1.158,3.043,1.499c0.904,0.268,1.865,0.398,2.867,0.398
		c0.287,0,0.584-0.007,0.881-0.029c1.072-0.087,2.086-0.359,3.006-0.812c0.924-0.453,1.719-1.045,2.369-1.75
		c0.641-0.697,1.191-1.497,1.635-2.378c0.441-0.871,0.758-1.796,0.941-2.746c0.186-0.945,0.252-1.918,0.199-2.886
		c-0.061-1.252-0.344-2.452-0.828-3.573C528.583,426.931,527.88,425.953,526.976,425.149 M527.724,431.754
		c0.082,1.354-0.111,2.643-0.574,3.838c-0.463,1.207-1.193,2.234-2.17,3.056c-0.977,0.816-2.125,1.277-3.414,1.371
		c-1.045,0.079-2.047-0.01-2.967-0.26c-0.918-0.272-1.711-0.661-2.359-1.168c-0.648-0.505-1.217-1.116-1.682-1.813
		c-0.469-0.701-0.813-1.45-1.016-2.232c-0.205-0.784-0.289-1.604-0.252-2.428c0.043-0.821,0.207-1.61,0.502-2.348
		c0.289-0.732,0.748-1.428,1.355-2.066c0.611-0.644,1.344-1.156,2.176-1.534c1.148-0.51,2.273-0.768,3.352-0.768
		c0.264,0,0.523,0.018,0.783,0.047c0.295,0.042,0.555-0.034,0.783-0.205c1.299,0.232,2.398,0.745,3.273,1.529
		C526.871,427.985,527.615,429.663,527.724,431.754"/>
	<path fill="#CB993D" d="M544.945,423.365c-0.27-0.124-0.555-0.136-0.84-0.032c-0.285,0.106-0.496,0.292-0.619,0.562
		c-0.354,0.76-1.271,2.397-2.721,4.875c-0.693,1.178-1.238,2.078-1.666,2.744l-0.168,0.247l-0.193-0.257
		c-0.418-0.577-0.938-1.4-1.584-2.507l-1.545-2.826c-0.578-1.089-0.912-1.692-1.047-1.915c-0.164-0.247-0.396-0.403-0.684-0.463
		c-0.293-0.064-0.563-0.017-0.816,0.139c-0.262,0.156-0.424,0.384-0.488,0.676c-0.059,0.282-0.02,0.56,0.135,0.844
		c0.051,0.076,0.252,0.398,0.969,1.749l1.58,2.856c0.668,1.155,1.242,2.073,1.707,2.724c0.305,0.424,0.586,0.755,0.836,0.987
		l0.037,0.045c-0.086,0.597-0.16,1.26-0.215,1.979c-0.057,0.762-0.084,1.41-0.084,1.938c0,0.518,0.004,1.218,0.021,2.104
		c0.016,0.886,0.025,1.507,0.025,1.863c0,0.289,0.105,0.547,0.326,0.767c0.215,0.216,0.473,0.324,0.766,0.324
		s0.551-0.108,0.766-0.326c0.215-0.216,0.322-0.473,0.322-0.765c0-0.408-0.01-1.071-0.025-1.979c-0.014-0.906-0.02-1.608-0.01-2.099
		c0.008-0.47,0.033-1.062,0.084-1.807c0.047-0.681,0.121-1.312,0.23-1.873c0.076-0.079,0.156-0.178,0.248-0.302l0.646-0.942
		l1.699-2.831c1.557-2.641,2.486-4.288,2.836-5.038c0.123-0.268,0.135-0.55,0.031-0.839
		C545.404,423.699,545.214,423.491,544.945,423.365"/>
	<path fill="#CB993D" d="M551.572,425.735c0.557-0.032,1.635-0.012,3.254,0.035c0.492,0.015,1.094,0.042,1.805,0.076
		c0.717,0.027,1.301,0.053,1.76,0.069c0.463,0.021,0.777,0.025,0.943,0.025c0.295,0,0.551-0.106,0.768-0.327
		c0.215-0.215,0.324-0.473,0.324-0.765c0-0.287-0.109-0.544-0.324-0.762c-0.217-0.216-0.479-0.324-0.768-0.324
		c-0.164,0-0.465-0.01-0.914-0.025c-0.449-0.015-1.021-0.042-1.719-0.076c-0.701-0.032-1.303-0.057-1.813-0.072
		c-1.885-0.054-3.045-0.076-3.598,0c-0.17,0-0.316,0.018-0.404,0.05c-0.229,0.042-0.422,0.109-0.582,0.213
		c-0.48,0.327-0.795,0.891-0.936,1.678c-0.07,0.436-0.035,1.032,0.105,1.854c0.031,0.089,0.063,0.218,0.092,0.386
		c0.029,0.158,0.045,0.26,0.051,0.347c0.049,0.257,0.08,0.455,0.096,0.597c0.096,1.051,0.137,2.393,0.121,3.974
		c-0.014,0.258-0.031,0.868-0.047,1.863c-0.02,0.975-0.027,1.729-0.027,2.254c0,0.06-0.012,0.24-0.072,0.763
		c-0.049,0.49-0.076,0.894-0.076,1.202c-0.02,1.394,0.438,2.284,1.365,2.658c0.111,0.034,0.238,0.064,0.414,0.086
		c0.076,0,0.174,0.008,0.299,0.021c0.189,0.017,0.451,0.024,0.842,0.024h0.01c0.572,0.02,1.379,0.034,2.418,0.05
		c0.473,0,1.027,0.005,1.668,0.015c0.641,0.007,1.162,0.015,1.57,0.024c0.414,0.01,0.695,0.013,0.844,0.013
		c0.303,0,0.564-0.104,0.785-0.312c0.221-0.208,0.326-0.468,0.326-0.768c0-0.297-0.102-0.557-0.307-0.771
		c-0.211-0.221-0.465-0.335-0.76-0.335c-0.143,0-0.426,0-0.842-0.007c-0.418-0.01-0.949-0.018-1.598-0.027
		c-0.65-0.01-1.205-0.013-1.662-0.013c-1.016-0.015-1.809-0.032-2.387-0.047c-0.324,0-0.58-0.01-0.766-0.022h-0.012
		c-0.02-0.081-0.043-0.247-0.029-0.562c0-0.24,0.027-0.569,0.074-0.984c0.053-0.518,0.078-0.837,0.078-1.008
		c0-0.505,0.004-1.244,0.021-2.207c0.008-0.597,0.021-1.175,0.037-1.509c0.24,0.02,0.539,0.049,0.889,0.086l2.047,0.223
		c1.777,0.163,3.258,0.06,4.391-0.309c0.27-0.082,0.48-0.261,0.629-0.53c0.145-0.267,0.168-0.549,0.072-0.831
		c-0.092-0.277-0.271-0.487-0.535-0.629c-0.27-0.148-0.559-0.171-0.844-0.071c-0.844,0.272-2.014,0.334-3.521,0.186
		c-0.104,0-0.539-0.037-2.018-0.218c-0.406-0.042-0.773-0.077-1.1-0.104c-0.021-0.865-0.064-1.662-0.121-2.37
		c-0.02-0.213-0.063-0.48-0.123-0.74c0-0.054-0.006-0.155-0.068-0.42c-0.039-0.176-0.068-0.305-0.08-0.382
		c-0.117-0.655-0.107-0.938-0.072-1.091L551.572,425.735z"/>
	<path fill="#CB993D" d="M580.345,429.192c-0.053-0.816-0.088-1.544-0.113-2.17c-0.021-0.629-0.037-1.237-0.037-1.823
		c0-0.295-0.107-0.555-0.322-0.768c-0.434-0.433-1.1-0.431-1.527,0c-0.221,0.215-0.332,0.473-0.332,0.768
		c0,0.594,0.018,1.207,0.039,1.851c0.025,0.644,0.068,1.386,0.127,2.231c0.057,0.844,0.092,1.458,0.109,1.854
		c0.029,0.621,0.039,2.181,0.023,4.635c-0.012,0.453-0.021,0.881-0.033,1.277l-0.531-0.545c-0.438-0.458-0.764-0.816-1.002-1.099
		c-0.299-0.356-0.613-0.69-0.947-1.012c-0.326-0.322-0.736-0.695-1.227-1.116c-0.502-0.438-0.807-0.695-0.941-0.794l-3.768-3.596
		c-0.121-0.109-0.375-0.369-0.746-0.768l-2.166-2.367l-0.396-0.396c-0.088-0.087-0.172-0.148-0.223-0.168
		c-0.088-0.067-0.178-0.111-0.242-0.126c-0.328-0.146-0.652-0.132-0.939,0.034c-0.424,0.23-0.662,0.608-0.684,1.108
		c0,0.193,0.043,0.398,0.139,0.631l0.115,0.271c0.047,0.361,0.109,1.388,0.188,3.051c0.084,1.307,0.074,3.167-0.021,5.535
		c-0.117,2.913-0.174,4.818-0.174,5.664c0,0.292,0.109,0.547,0.326,0.763c0.217,0.22,0.473,0.329,0.764,0.329
		s0.549-0.109,0.764-0.327c0.215-0.213,0.326-0.473,0.326-0.765c0-0.807,0.055-2.635,0.172-5.597c0.1-2.41,0.105-4.338,0.021-5.733
		c-0.014-0.166-0.031-0.421-0.047-0.768l-0.01-0.2l0.498,0.547c0.289,0.324,0.672,0.742,0.854,0.908
		c0.402,0.352,1.01,0.923,1.861,1.749c0.857,0.827,1.494,1.428,1.949,1.841l0.986,0.861c0.443,0.379,0.813,0.708,1.098,0.987
		c0.271,0.263,0.541,0.545,0.791,0.824c0.279,0.344,0.648,0.755,1.123,1.247l1.084,1.106c0.209,0.213,0.451,0.502,0.713,0.86
		l0.234,0.329l0.074,0.124l0.111,0.119l0.111,0.113c0.059,0.055,0.117,0.102,0.209,0.153l0.129,0.055
		c0.248,0.089,0.635,0.094,0.926-0.089c0.189-0.104,0.33-0.255,0.42-0.448l0.086-0.213l0.051-0.205
		c0.021-0.094,0.031-0.208,0.029-0.344c0.02-0.186,0.035-0.508,0.049-0.975c0.037-0.79,0.057-1.723,0.078-2.812
		c0.016-2.442,0.006-4.053-0.025-4.778C580.449,430.546,580.408,429.93,580.345,429.192"/>
	<path fill="#CB993D" d="M593.556,432.711c-0.646-0.475-1.672-0.925-3.047-1.336l-1.055-0.321c-0.213-0.063-0.494-0.161-0.85-0.292
		c-0.348-0.127-0.592-0.238-0.74-0.334c-0.162-0.102-0.344-0.235-0.553-0.394c-0.184-0.144-0.318-0.302-0.4-0.473
		c-0.092-0.193-0.17-0.406-0.229-0.621c-0.105-0.518-0.068-1.04,0.102-1.555c0.18-0.515,0.467-0.957,0.859-1.301
		c0.396-0.352,0.809-0.56,1.264-0.639c0.445-0.069,0.914,0.02,1.391,0.265c0.199,0.124,0.389,0.284,0.57,0.48
		c0.188,0.202,0.338,0.383,0.449,0.529c0.109,0.155,0.301,0.428,0.561,0.819c0.166,0.247,0.395,0.4,0.682,0.465
		c0.295,0.064,0.568,0.01,0.814-0.158c0.248-0.166,0.406-0.394,0.465-0.681c0.064-0.282,0.016-0.55-0.139-0.789
		c-0.021-0.058-0.074-0.142-0.176-0.295c-0.107-0.173-0.18-0.274-0.197-0.294l-0.186-0.275c-0.104-0.158-0.189-0.27-0.262-0.341
		c-0.051-0.055-0.125-0.139-0.215-0.248c-0.109-0.144-0.213-0.247-0.291-0.304l-0.281-0.285c-0.119-0.102-0.238-0.192-0.352-0.272
		c-0.113-0.084-0.242-0.155-0.383-0.225c-0.973-0.497-1.918-0.684-2.791-0.537c-0.879,0.136-1.678,0.527-2.385,1.16
		c-0.664,0.6-1.156,1.347-1.465,2.223c-0.307,0.881-0.361,1.786-0.154,2.689c0.104,0.518,0.301,0.997,0.586,1.423
		c0.281,0.421,0.574,0.76,0.865,1.007c0.297,0.253,0.684,0.49,1.186,0.721c0.498,0.232,0.871,0.389,1.141,0.478
		c0.273,0.092,0.656,0.21,1.176,0.366c0.111,0.02,0.27,0.052,0.371,0.092c1.133,0.336,1.928,0.673,2.361,0.994
		c0.533,0.403,0.811,0.976,0.844,1.747c0.047,1.203-0.232,2.185-0.824,2.923c-0.592,0.739-1.326,1.183-2.18,1.318
		c-0.863,0.137-1.676-0.049-2.471-0.579c-0.781-0.524-1.348-1.397-1.678-2.603c-0.078-0.282-0.25-0.508-0.51-0.666
		c-0.26-0.151-0.533-0.186-0.83-0.106c-0.277,0.079-0.504,0.25-0.662,0.51c-0.154,0.26-0.189,0.539-0.111,0.829
		c0.494,1.734,1.367,3.036,2.605,3.867c0.977,0.644,2.016,0.968,3.105,0.968c0.295,0,0.592-0.022,0.895-0.071
		c1.412-0.24,2.604-0.943,3.533-2.097c0.934-1.155,1.373-2.623,1.307-4.359C595.224,434.674,594.642,433.522,593.556,432.711"/>
</g>
</svg>
